<?xml version="1.0" encoding="UTF-8"?>
<svg xmlns="http://www.w3.org/2000/svg" viewBox="0 0 800 800">
  <defs>
    <style>
      .cls-1 {
        fill: #9e5f4c;
      }

      .cls-2 {
        fill: #f9f3e1;
      }

      .cls-3 {
        fill: #49332e;
      }

      .cls-4 {
        fill: #91614d;
      }

      .cls-5 {
        fill: #e2bfa3;
      }

      .cls-6 {
        fill: #4c3a33;
      }

      .cls-7 {
        fill: #b7805c;
      }

      .cls-8 {
        fill: #f4d6c9;
      }
    </style>
  </defs>
  <g id="Layer_1" data-name="Layer 1">
    <path class="cls-5" d="M652.19,125.7c0-59.92-112.81-108.52-252.03-108.52s-252.03,48.59-252.03,108.52c0,4.45,.7,8.83,1.87,13.13h-1.87l226.25,628.67c9.53,24.84,42.03,24.84,51.64,0L652.27,138.83h-1.88c1.09-4.3,1.8-8.67,1.8-13.13h0Z"/>
    <path class="cls-3" d="M400.16,789.38c-12.81,0-23.83-7.89-28.75-20.63L145.16,139.92c-.31-.94-.23-2.03,.39-2.89,.16-.23,.39-.47,.63-.63-.78-3.67-1.17-7.27-1.17-10.7,0-30.31,26.87-58.59,75.7-79.61,47.97-20.7,111.72-32.03,179.45-32.03s131.48,11.41,179.45,32.03c48.83,21.02,75.7,49.3,75.7,79.61,0,3.44-.39,7.03-1.17,10.7,.23,.16,.47,.39,.62,.63,.55,.86,.7,1.87,.39,2.89l-226.25,628.67c-4.92,12.81-15.94,20.78-28.75,20.78h0ZM152.27,141.09l225.08,625.39c3.91,10.23,12.66,16.56,22.89,16.56s18.98-6.41,22.89-16.64L648.12,141.02c-.08-.08-.16-.23-.31-.31-.62-.78-.78-1.8-.55-2.73,1.17-4.3,1.8-8.28,1.8-12.34,0-13.83-6.33-27.27-18.91-40.08-12.42-12.66-30.23-23.98-53.05-33.83-47.19-20.23-110.08-31.41-176.95-31.41s-129.77,11.17-176.95,31.56c-22.73,9.84-40.62,21.17-53.05,33.83-12.58,12.81-18.91,26.25-18.91,40.08,0,3.98,.55,8.05,1.8,12.34,.23,.94,.08,1.95-.55,2.73-.08,0-.16,.16-.23,.23h0Z"/>
    <path class="cls-2" d="M161.56,119.14c-.03,46.73,106.77,84.62,238.54,84.63,131.77,.01,238.62-37.86,238.65-84.59v-.04c0-46.73-106.82-84.61-238.59-84.61s-238.59,37.88-238.59,84.61h0Z"/>
    <path id="cone_colour" class="cls-7" d="M400.16,381.64c-63.36,0-123.28-17.66-176.48-32.81l150.7,418.75c9.53,24.84,42.03,24.84,51.64,0l150.7-418.75c-53.36,15.16-113.2,32.81-176.56,32.81h0Z"/>
    <path id="stripes" class="cls-3" d="M400.16,789.38c-12.81,0-23.83-7.89-28.75-20.63L220.7,349.84c-.39-1.09-.16-2.34,.62-3.2s2.03-1.17,3.12-.86l4.69,1.33c51.48,14.69,109.92,31.33,170.94,31.33s119.45-16.64,170.94-31.33l4.69-1.33c1.09-.31,2.34,0,3.12,.86s1.02,2.11,.62,3.2l-150.55,418.75c-4.92,12.81-15.94,20.78-28.75,20.78h0ZM228.67,353.44l148.59,413.05c3.91,10.23,12.66,16.56,22.89,16.56s18.98-6.41,22.89-16.64l148.59-412.97c-51.64,14.77-110,31.25-171.48,31.25-61.48,.08-119.92-16.48-171.48-31.25h0Zm234.06,173.52l18.28,47.11c1.56,4.06,4.45,7.27,7.97,9.22l16.72-46.41-11.8-30.47-31.17,20.55h0Zm-53.67-138.52l6.17-4.06c-2.5,.08-4.92,.16-7.42,.23,.23,.86,.47,1.72,.78,2.58l.47,1.25h0Zm40.23,103.83l31.09-20.55-26.8-69.06-31.09,20.55,26.8,69.06Zm-96.87-66.41l13.44,34.77,56.64-37.42,31.09-20.55,10.31-6.8c6.09-3.98,8.98-11.09,7.97-17.81-18.52,3.28-37.42,5.55-56.72,6.41l-6.17,4.06-56.56,37.34h0Zm-55.7,80.47l38.05-25.16-13.44-34.77-44.69,29.53c-1.09,.78-2.11,1.56-3.05,2.5l11.09,30.78c.7,.08,1.33,.16,2.03,.16,3.44-.08,6.95-1.02,10-3.05Zm224.22-61.48l-40.62,26.8-31.09,20.55-56.64,37.42,13.44,34.77,56.64-37.42,31.09-20.55,29.84-19.77,15.47-42.89c-5.55-2.73-12.5-2.58-18.13,1.09Zm-145.94,140.08l-13.44-34.77-49.3,32.58c-.31,.23-.55,.39-.86,.62l11.8,32.73c3.12-.16,6.33-1.09,9.14-2.97l42.66-28.2h0Zm70.39,67.27l-4.37,2.34,11.56,29.84,11.25-31.33c-5.31-3.44-12.34-4.06-18.44-.86h0Zm-23.59,53.59l-13.28-34.22-55,28.98,12.42,34.45c.7-.31,1.48-.62,2.19-.94l53.67-28.28h0Z"/>
    <path class="cls-1" d="M406.09,564.38l-13.44-34.77-26.72-68.98-13.44-34.77-18.13-46.88c-11.88-1.95-23.52-4.3-35-6.87-2.42,4.53-2.89,10-.94,15.08l22.89,59.14,13.44,34.77,26.72,68.98,13.44,34.77,33.59,86.72,13.28,34.22,2.11,5.55c2.5,6.48,8.36,10.7,14.77,11.48l13.83-38.44-11.56-29.84-34.84-90.16h0Z"/>
    <g>
      <path class="cls-4" d="M267.5,84.53c-2.11,0-4.06-.16-5.39-.47-3.2-.7-6.02-2.5-7.81-5.08-1.87-2.58-2.5-5.62-1.87-8.52,.62-2.89,2.58-5.39,5.31-6.95,2.73-1.48,6.02-1.95,9.22-1.25,3.28,.78,7.97,3.05,11.56,5.7,3.2,2.42,6.95,6.02,6.09,9.69-1.02,5.08-10.23,6.88-17.11,6.88h0Zm-3.52-20.23c-1.8,0-3.52,.39-5.08,1.25-2.19,1.17-3.67,3.12-4.22,5.39-.55,2.27,0,4.61,1.48,6.64,1.48,2.11,3.75,3.52,6.41,4.14,6.25,1.41,18.83-.39,19.77-4.53,.39-1.88-1.56-4.61-5.23-7.27-3.28-2.42-7.66-4.61-10.7-5.31-.78-.16-1.64-.31-2.42-.31h0Z"/>
      <path class="cls-4" d="M194.92,119.14l-11.41,19.45h38.75l10.39-24.61-37.73,5.16Zm75.55,26.33l-11.41,19.45h38.67l10.47-24.61-37.73,5.16Zm59.45-31.48l9.77,17.81,17.89-30.7-14.22-19.3-13.44,32.19Zm54.77,15.39l11.25,17.19,15.7-26.87-15.94-18.98-11.02,28.67Zm47.81-46.33l-.39,20.55,28.12-13.36-2.34-24.69-25.39,17.5Zm-28.91,4.53l11.25,17.19,15.7-26.95-15.86-18.98-11.09,28.75Zm53.28,27.34l-.39,20.55,28.12-13.36-2.42-24.69-25.31,17.5Zm45.63-2.5l-.39,20.55,28.12-13.36-2.42-24.61-25.31,17.42Z"/>
      <path class="cls-8" d="M266.8,63.44c6.09,1.41,17.97,8.59,16.8,13.98s-15.08,6.8-21.17,5.47c-6.09-1.41-10-6.8-8.75-12.19,1.09-5.39,7.03-8.59,13.12-7.27h0Z"/>
      <path class="cls-4" d="M237.81,115.62c-2.11,0-4.06-.16-5.39-.47-3.2-.7-6.02-2.5-7.81-5.08-1.87-2.58-2.5-5.62-1.87-8.52,1.33-6.02,7.89-9.61,14.53-8.13,3.28,.78,7.97,3.05,11.56,5.7,3.2,2.42,6.95,6.02,6.09,9.69-1.09,4.92-10.31,6.8-17.11,6.8Zm-3.59-20.23c-4.45,0-8.36,2.66-9.22,6.64-.55,2.27,0,4.61,1.48,6.64,1.48,2.11,3.75,3.52,6.41,4.14,6.25,1.41,18.83-.39,19.77-4.53,.39-1.87-1.56-4.61-5.23-7.27-3.28-2.42-7.66-4.61-10.7-5.31-.78-.23-1.64-.31-2.5-.31h0Z"/>
      <path class="cls-8" d="M237.03,94.53c6.09,1.41,17.97,8.59,16.8,13.98s-15.08,6.8-21.17,5.47c-6.09-1.41-10-6.8-8.75-12.19,1.17-5.39,7.03-8.59,13.12-7.27h0Z"/>
      <path class="cls-4" d="M342.34,74.37c-2.11,0-4.06-.16-5.39-.47-6.72-1.48-11.02-7.58-9.69-13.59,1.33-6.02,7.89-9.61,14.53-8.13,5.78,1.33,19.14,8.83,17.66,15.39-1.02,5-10.23,6.8-17.11,6.8h0Zm-3.52-20.16c-4.45,0-8.36,2.66-9.22,6.64-1.09,4.77,2.5,9.61,7.89,10.78,6.25,1.41,18.83-.39,19.77-4.53,.94-4.14-9.69-11.17-15.86-12.58-.94-.23-1.72-.31-2.58-.31h0Z"/>
      <path class="cls-8" d="M341.64,53.36c6.09,1.41,17.97,8.59,16.8,13.98s-15.08,6.8-21.17,5.47c-6.09-1.41-10-6.8-8.75-12.19,1.17-5.39,7.03-8.67,13.12-7.27h0Z"/>
      <path class="cls-4" d="M376.48,112.58c-.86,0-1.8-.08-2.66-.16-8.12-1.17-27.27-9.92-25.94-18.98,1.25-8.98,22.11-12.11,30.23-10.94,9.22,1.33,15.78,9.06,14.61,17.34-1.09,7.42-8.12,12.73-16.25,12.73h0Zm-2.34-2.5c7.97,1.09,15.23-3.59,16.25-10.62,1.02-6.95-4.69-13.59-12.66-14.69-4.3-.63-11.17,.08-16.8,1.64-6.48,1.8-10.39,4.45-10.78,7.34-.39,2.81,2.66,6.48,8.28,10.08,4.92,3.12,11.41,5.62,15.7,6.25Z"/>
      <path class="cls-8" d="M373.98,111.25c-8.59-1.25-26.02-10-25-17.66,1.09-7.66,20.31-11.17,28.91-10,8.59,1.25,14.69,8.36,13.59,16.02-1.09,7.66-8.91,12.89-17.5,11.64Z"/>
      <path class="cls-4" d="M491.72,96.95c-.86,0-1.8-.08-2.73-.16-8.13-1.17-27.27-9.92-25.94-18.98,.55-3.83,5-7.19,12.5-9.3,5.94-1.64,13.12-2.34,17.73-1.72,4.45,.63,8.44,2.73,11.17,6.02,2.81,3.28,3.98,7.34,3.44,11.33s-2.89,7.58-6.48,9.92c-2.81,1.88-6.17,2.89-9.69,2.89Zm-2.42-2.5c3.91,.55,7.73-.23,10.78-2.27,3.05-2.03,5-4.92,5.47-8.28,.47-3.36-.55-6.72-2.89-9.45-2.42-2.81-5.86-4.69-9.69-5.23-4.3-.63-11.17,.08-16.8,1.64-6.48,1.8-10.39,4.45-10.78,7.34s2.66,6.48,8.28,10.08c4.92,2.97,11.33,5.55,15.62,6.17h0Z"/>
      <path class="cls-8" d="M489.14,95.63c-8.59-1.25-26.02-10-25-17.66,1.09-7.66,20.31-11.17,28.91-10,8.59,1.25,14.69,8.36,13.59,16.02-1.02,7.66-8.91,12.81-17.5,11.64Z"/>
      <path class="cls-4" d="M536.41,161.8c-.86,0-1.8-.08-2.66-.16-8.13-1.17-27.27-9.92-25.94-18.98,1.25-8.98,22.11-12.11,30.23-10.94,9.22,1.33,15.78,9.06,14.61,17.34-1.09,7.42-8.13,12.73-16.25,12.73Zm-2.34-2.5c7.97,1.09,15.23-3.59,16.25-10.63,1.02-6.95-4.69-13.59-12.66-14.69-4.3-.63-11.17,.08-16.8,1.64-6.48,1.8-10.39,4.45-10.78,7.34s2.66,6.48,8.28,10.08c5,3.05,11.41,5.62,15.7,6.25h0Z"/>
      <path class="cls-8" d="M533.91,160.39c-8.59-1.25-26.02-10-25-17.66,1.09-7.66,20.31-11.17,28.91-10s14.69,8.36,13.59,16.02c-1.02,7.73-8.91,12.89-17.5,11.64h0Z"/>
      <path class="cls-4" d="M589.53,134.38c-.86,0-1.8-.08-2.73-.16-4.69-.63-11.33-3.28-16.56-6.56-6.64-4.14-9.92-8.52-9.38-12.34,.55-3.83,5-7.19,12.5-9.3,5.94-1.64,13.12-2.34,17.73-1.72,4.45,.63,8.44,2.73,11.17,6.02,2.81,3.28,3.98,7.34,3.44,11.33s-2.89,7.58-6.48,9.92c-2.81,1.8-6.17,2.81-9.69,2.81h0Zm-2.34-28.05c-3.98,0-8.98,.7-13.2,1.87-6.48,1.8-10.39,4.45-10.78,7.34-.39,2.81,2.66,6.48,8.28,10.08,4.92,3.05,11.41,5.62,15.62,6.25,3.91,.55,7.73-.23,10.78-2.27,3.05-2.03,5-4.92,5.47-8.28s-.55-6.72-2.89-9.45c-2.42-2.81-5.86-4.69-9.69-5.23-1.02-.23-2.27-.31-3.59-.31h0Z"/>
      <path class="cls-8" d="M587.03,132.97c-8.59-1.25-26.02-10-25-17.66,1.09-7.66,20.31-11.17,28.91-10,8.59,1.25,14.69,8.36,13.59,16.02-1.02,7.73-8.91,12.89-17.5,11.64h0Z"/>
      <path class="cls-4" d="M467.97,167.81c-.86,0-1.8-.08-2.73-.16-4.69-.63-11.33-3.28-16.56-6.56-6.64-4.14-9.92-8.52-9.38-12.34s5-7.19,12.5-9.3c5.94-1.64,13.12-2.34,17.73-1.72,4.45,.63,8.44,2.73,11.17,6.02,2.81,3.28,3.98,7.34,3.44,11.33-.55,3.98-2.89,7.58-6.48,9.92-2.81,1.8-6.17,2.81-9.69,2.81h0Zm-2.34-2.5c3.91,.55,7.73-.23,10.78-2.27,3.05-2.03,5-4.92,5.47-8.28s-.55-6.72-2.89-9.45c-2.42-2.81-5.86-4.69-9.69-5.23-4.3-.63-11.17,.08-16.8,1.64-6.48,1.8-10.39,4.45-10.78,7.34-.39,2.81,2.66,6.48,8.28,10.08,4.84,2.97,11.33,5.55,15.62,6.17h0Z"/>
      <path class="cls-8" d="M465.47,166.41c-8.59-1.25-26.02-10-25-17.66,1.09-7.66,20.31-11.17,28.91-10s14.69,8.36,13.59,16.02c-1.09,7.73-8.91,12.89-17.5,11.64h0Z"/>
      <path class="cls-4" d="M359.92,167.81c-.86,0-1.8-.08-2.66-.16-4.69-.63-11.33-3.28-16.56-6.56-6.64-4.14-9.92-8.52-9.38-12.34s5-7.19,12.5-9.3c5.94-1.64,13.12-2.34,17.73-1.72,4.45,.63,8.44,2.73,11.17,6.02,2.81,3.28,3.98,7.34,3.44,11.33-1.09,7.42-8.12,12.73-16.25,12.73h0Zm-2.34-28.05c-3.98,0-8.98,.7-13.2,1.87-6.48,1.8-10.39,4.45-10.78,7.34-.39,2.81,2.66,6.48,8.28,10.08,4.92,3.05,11.41,5.62,15.62,6.25,7.97,1.09,15.23-3.59,16.25-10.63,.47-3.36-.55-6.72-2.89-9.45-2.42-2.81-5.86-4.69-9.69-5.23-1.09-.16-2.27-.23-3.59-.23h0Z"/>
      <path class="cls-8" d="M357.42,166.41c-8.59-1.25-26.02-10-25-17.66,1.09-7.66,20.31-11.17,28.91-10s14.69,8.36,13.59,16.02c-1.02,7.73-8.91,12.89-17.5,11.64h0Z"/>
      <path class="cls-4" d="M294.53,125.39c-9.77,0-28.75-4.53-29.53-13.44-.86-9.69,20.08-18.05,28.83-18.83,9.92-.86,18.67,5.62,19.45,14.45,.78,8.83-6.64,16.8-16.56,17.73-.7,.08-1.41,.08-2.19,.08h0Zm1.09-30c-.55,0-1.09,0-1.64,.08-8.98,.78-27.34,8.98-26.72,16.25s20.23,12.03,29.14,11.25c8.67-.78,15.16-7.58,14.45-15.16-.62-7.11-7.27-12.42-15.23-12.42h0Z"/>
      <path class="cls-8" d="M296.56,124.14c-9.3,.86-29.69-4.06-30.47-12.27s18.44-16.72,27.73-17.5c9.3-.86,17.42,5.16,18.2,13.36s-6.17,15.55-15.47,16.41Z"/>
    </g>
  </g>
  <g id="eyes">
    
      <path class="cls-6" d="M473.52,256.17c0,8.37,7.38,15.16,16.48,15.16s16.48-6.79,16.48-15.16-7.38-15.16-16.48-15.16-16.48,6.79-16.48,15.16Z"/>
      <path class="cls-6" d="M425.16,302.89h-47.81c-.62,0-1.17-.55-1.17-1.17s.55-1.17,1.17-1.17h47.81c.62,0,1.17,.55,1.17,1.17s-.55,1.17-1.17,1.17Z"/>
      <path class="cls-6" d="M296.02,256.17c0,8.37,7.38,15.16,16.48,15.16s16.48-6.79,16.48-15.16-7.38-15.16-16.48-15.16-16.48,6.79-16.48,15.16Z"/>
    </g>
  </g>
</svg>