<?xml version="1.0" encoding="utf-8"?>
<!-- Generator: Adobe Illustrator 26.5.0, SVG Export Plug-In . SVG Version: 6.00 Build 0)  -->
<svg version="1.1" xmlns="http://www.w3.org/2000/svg" xmlns:xlink="http://www.w3.org/1999/xlink" x="0px" y="0px"
	 viewBox="0 0 800 800" style="enable-background:new 0 0 800 800;" xml:space="preserve">
<style type="text/css">
	.st0{fill:#49332E;}
	.st1{fill:#D64949;}
	.st2{fill:#E88080;}
	.st3{fill:#F4BC3D;}
	.st4{fill:#F4D192;}
	.st5{fill:#775647;}
</style>
<g id="stick_x5F_3">
	<path   class="st0" d="M400.9,793.6c-20.5,0-37.2-16.7-37.2-37.2V575.3c0-20.5,16.7-37.2,37.2-37.2c20.5,0,37.2,16.7,37.2,37.2v181.1
		C438,776.9,421.2,793.6,400.9,793.6z M400.9,796.7c-22.2,0-40.3-18-40.3-40.3V575.3c0-22.2,18-40.3,40.3-40.3
		c22.2,0,40.3,18,40.3,40.3v181.1C441.1,778.6,423,796.7,400.9,796.7z M400.9,541.2c-18.8,0-34.1,15.3-34.1,34.1v181.1
		c0,18.8,15.3,34.1,34.1,34.1s34.1-15.3,34.1-34.1V575.3C434.8,556.5,419.6,541.3,400.9,541.2L400.9,541.2z"/>
</g>
<g id="Layer_1">
	<path class="st1" d="M400.9,657.3c-74.8,0-136-61.2-136-136V141.9c0-74.5,61-135.5,135.5-135.5h0.3c74.8,0,136.1,61.2,136.1,136.1
		v378.9C536.8,596.2,475.6,657.3,400.9,657.3L400.9,657.3z"/>
	<path class="st0" d="M400.9,660.5c-37,0-71.9-14.5-98.3-40.9c-26.3-26.3-40.9-61.2-40.9-98.3V141.9c0-36.9,14.5-71.6,40.7-98
		c26.2-26.2,61-40.7,98-40.7h0.3c37,0,72,14.5,98.4,40.9c26.4,26.4,40.9,61.3,40.9,98.4v378.9c0,37-14.5,71.9-40.9,98.3
		C472.7,645.9,437.8,660.5,400.9,660.5L400.9,660.5z M400.4,9.5c-35.2,0-68.4,13.8-93.5,38.9S268,106.6,268,141.9v379.5
		c0,35.3,13.8,68.7,39.1,93.8c25.2,25.2,58.5,39.1,93.8,39.1c35.3,0,68.7-13.8,93.8-39.1s39.1-58.5,39.1-93.8V142.4
		c0-35.4-13.9-68.7-39.1-93.9S436.2,9.5,400.8,9.5L400.4,9.5L400.4,9.5z"/>
	<path class="st2" d="M400.9,6.3c-74.8,0-136,61.2-136,136v263.4c0,3.9,2.2,7.4,5.7,9.1c38.8,18.3,83.2,28.7,130.2,28.7
		s91.4-10.4,130.2-28.7c3.5-1.6,5.7-5.2,5.7-9.1V142.3C536.8,67.5,475.6,6.3,400.9,6.3z"/>
	<path class="st0" d="M400.9,446.6c-45.8,0-91.3-10-131.6-29c-4.6-2.2-7.5-6.8-7.5-11.9V142.3c0-37,14.5-71.9,40.9-98.3
		c26.3-26.3,61.2-40.9,98.2-40.9c37,0,71.9,14.5,98.3,40.9c26.3,26.3,40.9,61.2,40.9,98.3v263.4c0,5.1-3,9.8-7.5,11.9
		C492.1,436.6,446.6,446.6,400.9,446.6z M400.9,9.5c-35.3,0-68.7,13.8-93.8,39.1C281.9,73.8,268,107,268,142.3v263.4
		c0,2.7,1.6,5.1,3.9,6.2c39.5,18.6,84.1,28.4,128.9,28.4s89.5-9.8,128.9-28.4c2.4-1.1,3.9-3.6,3.9-6.2V142.3
		c0-35.3-13.8-68.7-39.1-93.8C469.5,23.4,436.2,9.5,400.9,9.5L400.9,9.5z"/>
	<path class="st3" d="M400.9,6.3c-74.8,0-136,61.2-136,136V198c0,4,2.4,7.7,6.1,9.2c38.2,16.1,82.6,25.4,129.9,25.4
		s91.6-9.2,129.9-25.4c3.7-1.6,6.1-5.2,6.1-9.2v-55.6C536.8,67.5,475.6,6.3,400.9,6.3z"/>
	<path class="st0" d="M400.9,235.7c-46,0-91.4-8.8-131.1-25.6c-4.8-2-8-6.8-8-12.1v-55.6c0-37,14.5-71.9,40.9-98.3
		c26.3-26.3,61.2-40.9,98.2-40.9s71.9,14.5,98.3,40.9c26.3,26.3,40.9,61.2,40.9,98.3V198c0,5.3-3.1,10.1-8,12.1
		C492.2,226.8,446.9,235.7,400.9,235.7L400.9,235.7z M400.9,9.5c-35.3,0-68.7,13.8-93.8,39.1C281.9,73.7,268,107,268,142.3V198
		c0,2.8,1.6,5.3,4.2,6.3c39,16.4,83.4,25.2,128.7,25.2s89.7-8.7,128.7-25.2c2.6-1.1,4.2-3.6,4.2-6.3v-55.6
		c0-35.3-13.8-68.7-39.1-93.8C469.5,23.4,436.2,9.5,400.9,9.5L400.9,9.5z"/>
	<path class="st4" d="M328.5,76.8c5.5,8.9,24.1,7.2,41.6-3.7c17.4-10.9,27-26.9,21.5-35.7c0,0,0,0,0,0c8.3-14-10.1-23-26.4-21.5
		c-16.3,1.5-36.2,14-44.5,28C312.4,57.8,318.7,67.9,328.5,76.8z"/>
	<path class="st5" d="M419,155.5h-40.1c-0.6,0-1.2-0.5-1.2-1.2s0.5-1.2,1.2-1.2h40c0.6,0,1.2,0.5,1.2,1.2S419.6,155.5,419,155.5z"/>
</g>
<g id="eyes_x5F_2">
	<path class="st5" d="M310.8,116.2c0,7,6.2,12.7,13.8,12.7c7.6,0,13.8-5.7,13.8-12.7c0,0,0,0,0,0c0-7-6.2-12.7-13.8-12.7
		C317,103.5,310.8,109.2,310.8,116.2C310.8,116.2,310.8,116.2,310.8,116.2z M459.5,116.2c0,7,6.2,12.7,13.8,12.7
		c7.6,0,13.8-5.7,13.8-12.7c0-7-6.2-12.7-13.8-12.7C465.6,103.5,459.5,109.2,459.5,116.2L459.5,116.2z"/>
</g>
</svg>
