<?xml version="1.0" encoding="UTF-8"?>
<svg xmlns="http://www.w3.org/2000/svg" viewBox="0 0 800 800">
  <defs>
    <style>
      .cls-1 {
        fill: #fff;
      }

      .cls-2 {
        fill: #f9c7ec;
      }

      .cls-3 {
        fill: #d66161;
      }

      .cls-4 {
        fill: #bd161f;
      }

      .cls-5 {
        fill: #d19f95;
      }

      .cls-6 {
        fill: #ce95c2;
      }

      .cls-7 {
        fill: #dd5e54;
      }

      .cls-8 {
        fill: #efe9e8;
      }

      .cls-9 {
        fill: #f4d967;
      }

      .cls-10 {
        fill: #e08079;
      }

      .cls-11 {
        fill: #f9c7f5;
      }

      .cls-12 {
        fill: #49332e;
      }

      .cls-13 {
        fill: #161616;
      }

      .cls-14 {
        fill: #ef86c7;
      }

      .cls-15 {
        fill: #cc8fb2;
      }

      .cls-16 {
        fill: #f4b6ab;
      }

      .cls-17 {
        fill: #ce1b1b;
      }
    </style>
  </defs>
  <g id="stick7_1">
    <path id="stick7_1-2" data-name="stick7_1" class="cls-9" d="M436.02,722.19c0,50.47-15.78,64.45-35.23,64.45s-35.23-13.98-35.23-64.45,15.78-118.28,35.23-118.28c19.45-.08,35.23,67.73,35.23,118.28Zm-35.23,66.8c-25.31,0-37.58-21.88-37.58-66.8,0-25.16,3.98-55.31,10.39-78.67,9.53-34.69,20-41.95,27.19-41.95,22.58,0,37.58,72.66,37.58,120.63,0,44.92-12.27,66.8-37.58,66.8Zm0-182.81c-7.58,0-16.09,14.38-22.66,38.52-6.33,23.05-10.23,52.73-10.23,77.5,0,62.11,24.77,62.11,32.89,62.11,10.08,0,17.58-3.98,22.97-12.27,6.56-10.16,9.92-26.95,9.92-49.84,0-24.77-3.91-54.45-10.23-77.5-6.56-24.14-15.08-38.52-22.66-38.52h0Z"/>
  </g>
  <g id="Layer_1" data-name="Layer 1">
    <path class="cls-5" d="M471.64,9.45c-31.48,0-58.67,18.75-70.86,45.7-12.27-26.95-39.37-45.7-70.86-45.7-42.97,0-77.89,34.84-77.89,77.89s119.14,165.86,148.75,165.86,148.75-122.89,148.75-165.86S514.69,9.45,471.64,9.45Z"/>
    <path class="cls-12" d="M400.78,256.33c-17.19,0-56.48-34.06-87.73-67.81-31.02-33.44-64.14-77.5-64.14-101.17,0-44.69,36.33-81.02,81.02-81.02,29.53,0,56.72,16.25,70.86,41.87,14.14-25.62,41.33-41.87,70.86-41.87,44.69,0,81.02,36.33,81.02,81.02,0,23.67-33.13,67.81-64.14,101.17-31.25,33.75-70.55,67.81-87.73,67.81h0ZM329.92,12.58c-41.25,0-74.77,33.52-74.77,74.77,0,17.97,24.53,56.09,62.42,96.95,34.84,37.5,70.55,65.78,83.2,65.78s48.36-28.28,83.2-65.78c37.97-40.86,62.42-78.91,62.42-96.95,0-41.25-33.52-74.77-74.77-74.77-29.22,0-55.94,17.19-68.05,43.83-.47,1.09-1.64,1.8-2.81,1.8-1.25,0-2.34-.7-2.81-1.8-12.11-26.64-38.83-43.83-68.05-43.83h0Z"/>
    <path class="cls-16" d="M471.64,10.23c-31.48,0-58.67,18.75-70.86,45.7-10.47-23.05-31.87-40.08-57.58-44.53-15.78,23.83-24.84,51.48-24.84,81.02,0,66.09,45.23,122.89,109.92,147.89,45.7-33.2,121.25-118.05,121.25-152.27-.08-42.97-34.92-77.81-77.89-77.81h0Z"/>
    <path class="cls-12" d="M400.78,256.33c-17.19,0-56.48-34.06-87.73-67.81-31.02-33.44-64.14-77.5-64.14-101.17,0-44.69,36.33-81.02,81.02-81.02,29.53,0,56.72,16.25,70.86,41.87,14.14-25.62,41.33-41.87,70.86-41.87,44.69,0,81.02,36.33,81.02,81.02,0,23.67-33.13,67.81-64.14,101.17-31.25,33.75-70.55,67.81-87.73,67.81h0ZM329.92,12.58c-41.25,0-74.77,33.52-74.77,74.77,0,17.97,24.53,56.09,62.42,96.95,34.84,37.5,70.55,65.78,83.2,65.78s48.36-28.28,83.2-65.78c37.97-40.86,62.42-78.91,62.42-96.95,0-41.25-33.52-74.77-74.77-74.77-29.22,0-55.94,17.19-68.05,43.83-.47,1.09-1.64,1.8-2.81,1.8-1.25,0-2.34-.7-2.81-1.8-12.11-26.64-38.83-43.83-68.05-43.83h0Z"/>
    <path class="cls-6" d="M471.64,217.89c-31.48,0-58.67,18.75-70.86,45.7-12.27-26.95-39.37-45.7-70.86-45.7-42.97,0-77.89,34.84-77.89,77.89s119.14,165.86,148.75,165.86,148.75-122.89,148.75-165.86-34.84-77.89-77.89-77.89h0Z"/>
    <path class="cls-12" d="M400.78,464.77c-17.19,0-56.48-34.06-87.73-67.81-31.02-33.44-64.14-77.5-64.14-101.17,0-44.69,36.33-81.02,81.02-81.02,29.53,0,56.72,16.25,70.86,41.88,14.14-25.62,41.33-41.88,70.86-41.88,44.69,0,81.02,36.33,81.02,81.02,0,23.67-33.13,67.81-64.14,101.17-31.25,33.75-70.55,67.81-87.73,67.81h0Zm-70.86-243.75c-41.25,0-74.77,33.52-74.77,74.77,0,17.97,24.53,56.09,62.42,96.95,34.84,37.5,70.55,65.78,83.2,65.78s48.36-28.28,83.2-65.78c37.97-40.86,62.42-78.91,62.42-96.95,0-41.25-33.52-74.77-74.77-74.77-29.22,0-55.94,17.19-68.05,43.83-.47,1.09-1.64,1.8-2.81,1.8-1.25,0-2.34-.7-2.81-1.8-12.11-26.64-38.83-43.83-68.05-43.83h0Z"/>
    <path class="cls-2" d="M471.64,217.89c-31.48,0-58.67,18.75-70.86,45.7-10.47-23.05-31.87-40.08-57.58-44.53-15.78,23.83-24.84,51.48-24.84,81.02,0,66.09,45.23,122.89,109.92,147.89,45.7-33.2,121.25-118.05,121.25-152.27,0-42.97-34.84-77.81-77.89-77.81h0Z"/>
    <path class="cls-12" d="M400.78,464.77c-17.19,0-56.48-34.06-87.73-67.81-31.02-33.44-64.14-77.5-64.14-101.17,0-44.69,36.33-81.02,81.02-81.02,29.53,0,56.72,16.25,70.86,41.88,14.14-25.62,41.33-41.88,70.86-41.88,44.69,0,81.02,36.33,81.02,81.02,0,23.67-33.13,67.81-64.14,101.17-31.25,33.75-70.55,67.81-87.73,67.81h0Zm-70.86-243.75c-41.25,0-74.77,33.52-74.77,74.77,0,17.97,24.53,56.09,62.42,96.95,34.84,37.5,70.55,65.78,83.2,65.78s48.36-28.28,83.2-65.78c37.97-40.86,62.42-78.91,62.42-96.95,0-41.25-33.52-74.77-74.77-74.77-29.22,0-55.94,17.19-68.05,43.83-.47,1.09-1.64,1.8-2.81,1.8-1.25,0-2.34-.7-2.81-1.8-12.11-26.64-38.83-43.83-68.05-43.83h0Z"/>
    <path class="cls-15" d="M471.64,432.11c-31.48,0-58.67,18.75-70.86,45.7-12.27-26.95-39.37-45.7-70.86-45.7-42.97,0-77.89,34.84-77.89,77.89s119.14,165.86,148.75,165.86,148.75-122.89,148.75-165.86-34.84-77.89-77.89-77.89Z"/>
    <path class="cls-12" d="M400.78,678.98c-17.19,0-56.48-34.06-87.73-67.81-31.02-33.44-64.14-77.5-64.14-101.17,0-44.69,36.33-81.02,81.02-81.02,29.53,0,56.72,16.25,70.86,41.87,14.14-25.62,41.33-41.87,70.86-41.87,44.69,0,81.02,36.33,81.02,81.02,0,23.67-33.13,67.81-64.14,101.17-31.25,33.75-70.55,67.81-87.73,67.81h0Zm-70.86-243.75c-41.25,0-74.77,33.52-74.77,74.77,0,17.97,24.53,56.09,62.42,96.95,34.84,37.5,70.55,65.78,83.2,65.78s48.36-28.28,83.2-65.78c37.97-40.86,62.42-78.91,62.42-96.95,0-41.25-33.52-74.77-74.77-74.77-29.22,0-55.94,17.19-68.05,43.83-.47,1.09-1.64,1.8-2.81,1.8-1.25,0-2.34-.7-2.81-1.8-12.11-26.64-38.83-43.83-68.05-43.83h0Z"/>
    <path class="cls-14" d="M471.64,432.11c-31.48,0-58.67,18.75-70.86,45.7-10.47-23.05-31.87-40.08-57.58-44.53-15.78,23.83-24.84,51.48-24.84,81.02,0,66.09,45.23,122.89,109.92,147.89,45.7-33.2,121.25-118.05,121.25-152.27,0-42.97-34.84-77.81-77.89-77.81Z"/>
    <path class="cls-12" d="M400.78,678.98c-17.19,0-56.48-34.06-87.73-67.81-31.02-33.44-64.14-77.5-64.14-101.17,0-44.69,36.33-81.02,81.02-81.02,29.53,0,56.72,16.25,70.86,41.87,14.14-25.62,41.33-41.87,70.86-41.87,44.69,0,81.02,36.33,81.02,81.02,0,23.67-33.13,67.81-64.14,101.17-31.25,33.75-70.55,67.81-87.73,67.81h0Zm-70.86-243.75c-41.25,0-74.77,33.52-74.77,74.77,0,17.97,24.53,56.09,62.42,96.95,34.84,37.5,70.55,65.78,83.2,65.78s48.36-28.28,83.2-65.78c37.97-40.86,62.42-78.91,62.42-96.95,0-41.25-33.52-74.77-74.77-74.77-29.22,0-55.94,17.19-68.05,43.83-.47,1.09-1.64,1.8-2.81,1.8-1.25,0-2.34-.7-2.81-1.8-12.11-26.64-38.83-43.83-68.05-43.83h0Zm26.33-132.89c-.62,0-1.17-.55-1.17-1.17,0-11.41-9.22-20.7-20.47-20.7s-20.47,9.3-20.47,20.7c0,.62-.55,1.17-1.17,1.17s-1.17-.55-1.17-1.17c0-12.73,10.23-23.05,22.81-23.05s22.81,10.31,22.81,23.05c0,.7-.47,1.17-1.17,1.17Z"/>
    <path class="cls-12" d="M312.42,302.34h-.16c-7.11-1.17-13.12-5.39-15.78-11.09-.23-.62,0-1.25,.55-1.56,.62-.31,1.25,0,1.56,.55,2.34,5,7.66,8.67,13.98,9.77,.62,.08,1.09,.7,.94,1.33-.08,.62-.55,1.02-1.09,1.02Zm2.73-9.45h-.16c-6.33-1.02-11.72-4.77-14.06-9.84-.23-.62,0-1.25,.55-1.56,.62-.23,1.25,0,1.56,.55,2.03,4.38,6.72,7.66,12.27,8.52,.62,.08,1.09,.7,.94,1.33-.08,.62-.55,1.02-1.09,1.02h0Z"/>
    <path class="cls-12" d="M488.59,302.34c-.62,0-1.17-.55-1.17-1.17,0-11.41-9.22-20.7-20.47-20.7s-20.47,9.3-20.47,20.7c0,.62-.55,1.17-1.17,1.17s-1.17-.55-1.17-1.17c0-12.73,10.23-23.05,22.81-23.05s22.81,10.31,22.81,23.05c0,.7-.55,1.17-1.17,1.17Z"/>
    <path class="cls-12" d="M489.14,302.34c-.55,0-1.09-.39-1.17-1.02s.31-1.25,.94-1.33c6.33-1.02,11.72-4.77,13.98-9.77,.23-.62,.94-.86,1.56-.55s.86,.94,.55,1.56c-2.66,5.7-8.67,9.92-15.78,11.09h-.08Zm-2.73-9.45c-.55,0-1.09-.39-1.17-1.02s.31-1.25,.94-1.33c5.55-.94,10.23-4.14,12.27-8.52,.23-.62,.94-.86,1.56-.55,.62,.23,.86,.94,.55,1.56-2.34,5.08-7.73,8.83-14.06,9.84h-.08Z"/>
    <path class="cls-12" d="M469.61,102.5c-.62,0-1.17-.55-1.17-1.17,0-8.44-6.8-15.31-15.16-15.31s-15.16,6.88-15.16,15.31c0,.63-.55,1.17-1.17,1.17s-1.17-.55-1.17-1.17c0-9.77,7.89-17.66,17.5-17.66s17.5,7.89,17.5,17.66c0,.63-.47,1.17-1.17,1.17Z"/>
    <path class="cls-7" d="M315.7,323.59c0,6.95,9.2,12.58,20.55,12.58s20.55-5.63,20.55-12.58-9.2-12.58-20.55-12.58-20.55,5.63-20.55,12.58Z"/>
    <path class="cls-7" d="M444.77,323.59c-.01,6.95,9.18,12.58,20.53,12.59,11.35,0,20.56-5.62,20.57-12.57v-.02c.01-6.95-9.18-12.58-20.53-12.59-11.35,0-20.56,5.62-20.57,12.57v.02Z"/>
    <path class="cls-17" d="M372.66,327.42c-.7,4.06-1.09,8.36-1.09,12.81,0,26.41,13.05,46.33,29.22,46.33s29.22-19.92,29.22-46.33c0-4.45-.39-8.75-1.09-12.81h-56.25Z"/>
    <path class="cls-12" d="M400.78,387.73c-17.03,0-30.39-20.86-30.39-47.5,0-4.38,.39-8.75,1.09-13.05,.08-.55,.55-.94,1.17-.94h56.25c.55,0,1.09,.39,1.17,.94,.7,4.22,1.09,8.59,1.09,13.05,0,26.64-13.36,47.5-30.39,47.5Zm-27.19-59.14c-.62,3.83-.86,7.73-.86,11.64,0,25.31,12.34,45.16,28.05,45.16s28.05-19.84,28.05-45.16c0-3.91-.31-7.81-.86-11.64h-54.38Z"/>
    <path class="cls-1" d="M429.92,345c0-1.02,.08-2.03,.08-3.12,0-5-.39-9.84-1.09-14.45h-56.25c-.7,4.61-1.09,9.45-1.09,14.45,0,1.02,0,2.11,.08,3.12h58.28Z"/>
    <path class="cls-12" d="M429.92,346.17h-58.36c-.62,0-1.17-.47-1.17-1.17,0-1.02-.08-2.11-.08-3.12,0-4.92,.39-9.84,1.09-14.61,.08-.55,.55-1.02,1.17-1.02h56.33c.55,0,1.09,.39,1.17,1.02,.7,4.77,1.09,9.69,1.09,14.61,0,1.09,0,2.11-.08,3.12,0,.62-.47,1.17-1.17,1.17h0Zm-57.19-2.34h56.09v-1.95c0-4.45-.31-8.91-.94-13.28h-54.3c-.62,4.38-.94,8.83-.94,13.28,.08,.62,.08,1.25,.08,1.95h0Z"/>
    <path class="cls-3" d="M400.78,369.37c-3.52,0-6.8-5.47-10.63-5.08-5,.47-7.66,5.39-10.08,9.69,5.31,8.75,12.66,12.66,20.7,12.66s15.47-3.98,20.7-12.66c-2.66-4.45-5.78-10-10.94-10-4.06-.08-6.56,5.39-9.77,5.39Z"/>
    <path class="cls-12" d="M400.78,387.73c-8.98,0-16.48-4.61-21.72-13.2-.23-.39-.23-.86,0-1.17l.39-.62c2.5-4.22,5.31-9.06,10.63-9.61,2.5-.23,4.61,1.41,6.48,2.81,1.48,1.17,2.97,2.27,4.22,2.27,1.09,0,2.27-1.09,3.52-2.19,1.72-1.56,3.67-3.28,6.25-3.28,5.78,0,9.14,5.7,11.8,10.39l.16,.23c.23,.39,.23,.86,0,1.17-5.23,8.67-12.73,13.2-21.72,13.2Zm-19.37-13.83c4.77,7.5,11.48,11.48,19.37,11.48s14.61-3.98,19.37-11.48c-2.5-4.22-5.31-8.83-9.61-8.83-1.72,0-3.2,1.33-4.69,2.66-1.56,1.41-3.12,2.81-5.08,2.81-2.11,0-3.91-1.41-5.63-2.73s-3.28-2.5-4.84-2.34c-4.14,.31-6.56,4.45-8.91,8.44h0Z"/>
    <path class="cls-12" d="M357.19,529.22c-.62,0-1.17-.55-1.17-1.17,0-11.17-8.98-20.23-20-20.23s-20,9.06-20,20.23c0,.62-.55,1.17-1.17,1.17s-1.17-.55-1.17-1.17c0-12.42,10.08-22.58,22.34-22.58s22.34,10.16,22.34,22.58c0,.62-.55,1.17-1.17,1.17Z"/>
    <path class="cls-12" d="M314.22,529.22h-.16c-6.95-1.09-12.89-5.31-15.47-10.86-.23-.62,0-1.25,.55-1.56,.62-.23,1.25,0,1.56,.55,2.27,4.84,7.5,8.52,13.67,9.53,.62,.08,1.09,.7,.94,1.33,0,.62-.55,1.02-1.09,1.02h0Zm2.66-9.3h-.16c-6.17-1.02-11.48-4.69-13.75-9.69-.23-.62,0-1.25,.55-1.56,.62-.31,1.25,0,1.56,.55,1.95,4.3,6.56,7.42,12.03,8.36,.62,.08,1.09,.7,.94,1.33-.08,.62-.62,1.02-1.17,1.02Z"/>
    <path class="cls-12" d="M486.8,529.22c-.62,0-1.17-.55-1.17-1.17,0-11.17-8.98-20.23-20-20.23s-20,9.06-20,20.23c0,.62-.55,1.17-1.17,1.17s-1.17-.55-1.17-1.17c0-12.42,10.08-22.58,22.34-22.58s22.34,10.16,22.34,22.58c0,.62-.55,1.17-1.17,1.17Z"/>
    <path class="cls-12" d="M487.34,529.22c-.55,0-1.09-.39-1.17-1.02s.31-1.25,.94-1.33c6.17-1.02,11.41-4.69,13.67-9.53,.23-.62,.94-.86,1.56-.55,.62,.23,.86,.94,.55,1.56-2.58,5.55-8.52,9.69-15.47,10.86h-.08Zm-2.66-9.3c-.55,0-1.09-.39-1.17-1.02s.31-1.25,.94-1.33c5.47-.86,10-4.06,12.03-8.36,.23-.62,.94-.86,1.56-.55s.86,.94,.55,1.56c-2.27,4.92-7.58,8.67-13.75,9.69h-.16Z"/>
    <path class="cls-11" d="M316.88,553.91c0,5.61,7.45,10.16,16.64,10.16s16.64-4.55,16.64-10.16-7.45-10.16-16.64-10.16-16.64,4.55-16.64,10.16Z"/>
    <path class="cls-11" d="M451.41,553.91c0,5.61,7.43,10.16,16.62,10.17,9.19,0,16.65-4.54,16.66-10.15v-.02c0-5.61-7.43-10.16-16.62-10.17-9.19,0-16.65,4.54-16.66,10.15v.02Z"/>
    <path class="cls-4" d="M408.52,579.06l23.83-14.77-6.09-8.98c-4.37-6.56-13.05-8.05-19.22-3.44-6.17,4.61-7.66,13.83-3.2,20.31l4.69,6.87h0Z"/>
    <path class="cls-12" d="M399.92,581.17c-13.2,0-25.23-6.95-31.41-18.13-.23-.39-.08-.86,.31-1.09,.39-.23,.86-.08,1.09,.31,5.86,10.7,17.34,17.34,30,17.34s24.53-6.87,30.31-17.89c.23-.39,.7-.55,1.02-.31,.39,.23,.55,.7,.31,1.02-6.02,11.56-18.2,18.75-31.64,18.75h0Z"/>
    <path class="cls-12" d="M327.5,95.86c0,9.88,6.42,17.9,14.36,17.91,7.94,0,14.38-8,14.39-17.88v-.03c0-9.88-6.42-17.9-14.36-17.91-7.94,0-14.38,8-14.39,17.88v.03Z"/>
    <path class="cls-13" d="M335.78,93.44c0,6.08,3.98,11.02,8.9,11.03,4.92,0,8.91-4.92,8.92-11v-.02c0-6.08-3.98-11.02-8.9-11.03-4.92,0-8.91,4.92-8.92,11v.02Z"/>
    <path class="cls-8" d="M338.59,91.72c0,5.13,3.36,9.3,7.5,9.3s7.5-4.16,7.5-9.3h0c0-5.13-3.36-9.3-7.5-9.3s-7.5,4.16-7.5,9.3Z"/>
    <path class="cls-12" d="M336.41,86.25h-.23c-1.41-.39-2.73-.94-3.98-1.72-3.28-2.11-5.94-5.47-7.34-9.53-.16-.39,.08-.86,.47-1.02,.39-.16,.86,.08,1.02,.47,1.33,3.75,3.75,6.88,6.72,8.75,1.09,.7,2.34,1.25,3.52,1.56,.39,.08,.7,.55,.55,.94-.08,.31-.39,.55-.7,.55h0Z"/>
    <path class="cls-10" d="M323.83,131.33c0,4.79,9.33,8.67,20.85,8.68,11.52,0,20.86-3.88,20.87-8.67h0c0-4.8-9.33-8.68-20.85-8.68-11.52,0-20.86,3.88-20.87,8.67h0Z"/>
    <path class="cls-10" d="M436.95,130c0,4.79,9.34,8.67,20.86,8.67s20.86-3.88,20.86-8.67-9.34-8.67-20.86-8.67-20.86,3.88-20.86,8.67Z"/>
    <path class="cls-12" d="M395,149.22c-4.61,0-7.11-.94-7.73-2.97-.47-1.64-.23-3.2,.7-4.53,2.19-3.12,7.66-4.38,10.78-4.84-5.86-3.91-8.36-6.95-7.58-9.45,1.41-4.61,13.59-4.38,15-4.3,.47,0,.78,.39,.78,.78,0,.47-.39,.78-.78,.78-4.77-.16-12.66,.55-13.44,3.2-.31,1.09,.39,3.67,8.75,8.91,.31,.16,.39,.55,.31,.86-.08,.31-.39,.55-.7,.63-.08,0-9.22,.7-11.8,4.45-.62,.94-.78,2.03-.47,3.2,.86,3.05,12.89,1.8,21.09-.08,.39-.08,.86,.16,.94,.63,.08,.39-.16,.86-.62,.94-.08,0-5.23,1.17-10.55,1.72-1.8,0-3.36,.08-4.69,.08h0Z"/>
  </g>
</svg>