<?xml version="1.0" encoding="UTF-8"?>
<svg xmlns="http://www.w3.org/2000/svg" viewBox="0 0 800 800">
  <defs>
    <style>
      .cls-1 {
        fill: #ce89c8;
      }

      .cls-2 {
        fill: #fff;
      }

      .cls-3 {
        fill: #d66161;
      }

      .cls-4 {
        fill: #efe9e8;
      }

      .cls-5 {
        fill: #cbeaa7;
      }

      .cls-6 {
        fill: #49332e;
      }

      .cls-7 {
        fill: #ac88d3;
      }

      .cls-8 {
        fill: #b9a2dd;
      }

      .cls-9 {
        fill: #eab3b0;
      }

      .cls-10 {
        fill: #ead681;
      }

      .cls-11 {
        fill: #ce1b1b;
      }

      .cls-12 {
        fill: #aad188;
      }
    </style>
  </defs>
  <g id="stick_9">
    <path class="cls-10" d="M405.31,790.62c-18.36,0-33.28-14.92-33.28-33.28v-172.42c0-13.67,11.02-24.69,24.69-24.69h17.19c13.67,0,24.69,11.02,24.69,24.69v172.42c0,18.36-14.92,33.28-33.28,33.28Zm0,3.12c-20.08,0-36.41-16.33-36.41-36.41v-172.42c0-15.31,12.5-27.81,27.81-27.81h17.19c15.31,0,27.81,12.5,27.81,27.81v172.42c0,20.08-16.33,36.41-36.41,36.41Zm-8.59-230.39c-11.88,0-21.56,9.69-21.56,21.56v172.42c0,16.64,13.52,30.16,30.16,30.16s30.16-13.52,30.16-30.16v-172.42c0-11.88-9.69-21.56-21.56-21.56h-17.19Z"/>
  </g>
  <g id="Layer_1" data-name="Layer 1">
    <path class="cls-7" d="M503.52,624.22h-208.12c-37.58,0-68.05-30.47-68.05-68.05V178.36c0-95.08,77.11-172.11,172.11-172.11s172.11,77.03,172.11,172.11v377.81c0,37.58-30.47,68.05-68.05,68.05Z"/>
    <path class="cls-6" d="M503.52,626.56h-208.12c-38.83,0-70.39-31.56-70.39-70.39V178.36c0-46.56,18.13-90.39,51.09-123.36S352.89,3.91,399.45,3.91s90.39,18.13,123.36,51.09c32.97,32.97,51.09,76.72,51.09,123.36v377.81c0,38.83-31.56,70.39-70.39,70.39h0ZM399.45,8.59c-45.31,0-87.97,17.66-120.08,49.69-32.03,32.03-49.69,74.69-49.69,120.08v377.81c0,36.25,29.45,65.7,65.7,65.7h208.13c36.25,0,65.7-29.45,65.7-65.7V178.36c0-45.31-17.66-87.97-49.69-120.08-32.11-32.03-74.69-49.69-120.08-49.69Z"/>
    <path class="cls-8" d="M503.36,624.22h-207.73c-37.66,0-68.2-30.31-68.2-67.73V177.03c-.08-94.3,77.03-170.78,172.03-170.78s131.41,79.92,131.41,174.22v379.53c0,37.34,10.16,64.22-27.5,64.22Z"/>
    <path class="cls-12" d="M571.56,438.12H227.34V178.36c0-95.08,77.11-172.11,172.19-172.11s172.03,77.03,172.03,172.11V438.12Z"/>
    <path class="cls-6" d="M571.56,440.47H227.34c-1.33,0-2.34-1.02-2.34-2.34V178.36c0-46.64,18.13-90.39,51.09-123.36S352.89,3.91,399.53,3.91s90.39,18.13,123.28,51.09c32.89,32.97,51.09,76.72,51.09,123.36V438.12c0,1.25-1.02,2.34-2.34,2.34h0Zm-341.88-4.69h339.53V178.36c0-45.31-17.66-87.97-49.69-120-32.03-32.11-74.69-49.77-120-49.77s-87.97,17.66-120.08,49.77c-32.03,32.11-49.77,74.69-49.77,120.08V435.78h0Z"/>
    <path class="cls-5" d="M532.11,438.12H227.34V175.62c0-93.52,76.48-169.37,170.7-169.37l66.41,11.25c35.23,26.48,67.66,34.92,67.66,91.88V438.12Z"/>
    <path class="cls-6" d="M505.23,626.56h-211.56c-37.89,0-68.67-30.78-68.67-68.67V178.36c0-46.56,18.13-90.39,51.09-123.36S352.89,3.91,399.45,3.91s90.39,18.13,123.36,51.09c32.97,32.97,51.09,76.72,51.09,123.36v379.53c0,37.89-30.78,68.67-68.67,68.67ZM399.45,8.59c-45.31,0-87.97,17.66-120.08,49.69-32.03,32.03-49.69,74.69-49.69,120.08v379.53c0,35.31,28.67,63.98,63.98,63.98h211.56c35.31,0,63.98-28.67,63.98-63.98V178.36c0-45.31-17.66-87.97-49.69-120.08-32.11-32.03-74.69-49.69-120.08-49.69Z"/>
    <path class="cls-6" d="M571.56,440.47H227.34c-1.33,0-2.34-1.02-2.34-2.34V178.36c0-46.56,18.13-90.39,51.09-123.36S352.89,3.91,399.45,3.91s90.39,18.13,123.36,51.09c32.97,32.97,51.09,76.72,51.09,123.36V438.12c0,1.25-1.02,2.34-2.34,2.34h0Zm-341.88-4.69h339.53V178.36c0-45.31-17.66-87.97-49.69-120.08-32.03-32.03-74.69-49.69-120.08-49.69s-87.97,17.66-120.08,49.69c-32.03,32.03-49.69,74.69-49.69,120.08V435.78Z"/>
    <path class="cls-1" d="M571.56,244.69H227.34v-66.33c0-95.08,77.11-172.11,172.11-172.11s172.11,77.03,172.11,172.11v66.33Z"/>
    <path class="cls-6" d="M571.56,247.03H227.34c-1.33,0-2.34-1.02-2.34-2.34v-66.33c0-46.56,18.13-90.39,51.09-123.36S352.89,3.91,399.45,3.91s90.39,18.13,123.36,51.09c32.97,32.97,51.09,76.72,51.09,123.36v66.33c0,1.33-1.02,2.34-2.34,2.34h0Zm-341.88-4.69h339.53v-63.98c0-45.31-17.66-87.97-49.69-120.08-32.03-32.03-74.69-49.69-120.08-49.69s-87.97,17.66-120.08,49.69c-32.03,32.03-49.69,74.69-49.69,120.08v63.98Z"/>
    <path class="cls-6" d="M571.56,247.03H227.34c-1.33,0-2.34-1.02-2.34-2.34v-66.33c0-46.56,18.13-90.39,51.09-123.36S352.89,3.91,399.45,3.91s90.39,18.13,123.36,51.09c32.97,32.97,51.09,76.72,51.09,123.36v66.33c0,1.33-1.02,2.34-2.34,2.34h0Zm-341.88-4.69h339.53v-63.98c0-45.31-17.66-87.97-49.69-120.08-32.03-32.03-74.69-49.69-120.08-49.69s-87.97,17.66-120.08,49.69c-32.03,32.03-49.69,74.69-49.69,120.08v63.98Z"/>
    <path class="cls-6" d="M456.09,297.73c0,11.48,7.26,20.79,16.23,20.8,8.97,.01,16.26-9.28,16.27-20.76v-.04c0-11.48-7.26-20.79-16.23-20.8-8.97-.01-16.26,9.28-16.27,20.76v.04Z"/>
    <path class="cls-4" d="M459.14,292.89c0,5.95,3.76,10.79,8.42,10.8,4.66,0,8.44-4.81,8.45-10.76v-.03c0-5.95-3.76-10.79-8.42-10.8-4.66,0-8.44,4.81-8.45,10.76v.03Z"/>
    <path class="cls-6" d="M478.59,286.41c-.31,0-.62-.23-.78-.55-.08-.39,.16-.86,.55-.94,1.41-.39,2.73-1.02,4.06-1.8,3.44-2.19,6.09-5.86,7.66-10.23,.16-.39,.55-.62,1.02-.47,.39,.16,.62,.55,.47,1.02-1.64,4.69-4.53,8.67-8.28,11.02-1.41,.94-2.89,1.56-4.45,2.03q-.16-.08-.23-.08h0Zm-126.41,28.67c-.62,0-1.17-.55-1.17-1.17,0-9.3-6.72-16.95-15-16.95s-15,7.58-15,16.95c0,.62-.55,1.17-1.17,1.17s-1.17-.55-1.17-1.17c0-10.63,7.73-19.3,17.34-19.3s17.34,8.67,17.34,19.3c0,.7-.55,1.17-1.17,1.17Z"/>
    <path class="cls-11" d="M381.41,345.7c-.62,3.44-.94,7.03-.94,10.78,0,22.19,11.09,39.06,24.84,39.06s24.84-16.8,24.84-39.06c0-3.75-.31-7.34-.94-10.78h-47.81Z"/>
    <path class="cls-6" d="M405.31,396.72c-14.61,0-26.02-17.66-26.02-40.23,0-3.67,.31-7.42,.94-11.02,.08-.55,.55-.94,1.17-.94h47.81c.55,0,1.09,.39,1.17,.94,.62,3.59,.94,7.27,.94,11.02,0,22.58-11.41,40.23-26.02,40.23h0Zm-22.89-49.84c-.47,3.12-.7,6.41-.7,9.61,0,21.25,10.39,37.89,23.67,37.89s23.67-16.64,23.67-37.89c0-3.2-.23-6.48-.7-9.61h-45.94Z"/>
    <path class="cls-2" d="M430.08,360.47c0-.86,.08-1.72,.08-2.66,0-4.22-.31-8.28-.94-12.19h-47.81c-.62,3.91-.94,7.97-.94,12.19,0,.86,0,1.72,.08,2.66h49.53Z"/>
    <path class="cls-6" d="M430.08,361.64h-49.53c-.62,0-1.17-.47-1.17-1.17,0-.86-.08-1.8-.08-2.66,0-4.14,.31-8.28,.94-12.34,.08-.55,.55-1.02,1.17-1.02h47.81c.55,0,1.09,.39,1.17,1.02,.62,4.06,.94,8.2,.94,12.34,0,.86,0,1.8-.08,2.66,0,.7-.55,1.17-1.17,1.17h0Zm-48.36-2.34h47.27v-1.48c0-3.67-.23-7.34-.78-11.02h-45.78c-.47,3.59-.78,7.27-.78,11.02,0,.55,0,1.02,.08,1.48h0Z"/>
    <path class="cls-3" d="M405.31,381.02c-2.97,0-5.78-4.61-9.06-4.3-4.22,.39-6.48,4.61-8.59,8.12,4.53,7.34,10.7,10.7,17.58,10.7s13.12-3.36,17.58-10.7c-2.27-3.75-4.92-8.44-9.3-8.44-3.36,0-5.47,4.61-8.2,4.61h0Z"/>
    <path class="cls-6" d="M405.31,396.72c-7.66,0-14.14-3.91-18.59-11.25-.23-.39-.23-.86,0-1.17l.31-.55c2.11-3.59,4.53-7.73,9.14-8.2,2.19-.23,3.98,1.17,5.62,2.42,1.25,.94,2.42,1.87,3.52,1.87,.86,0,1.8-.86,2.89-1.8,1.48-1.33,3.12-2.81,5.47-2.81,5,0,7.89,4.92,10.16,8.83l.16,.23c.23,.39,.23,.86,0,1.17-4.53,7.34-11.02,11.25-18.67,11.25h0Zm-16.25-11.87c4.06,6.25,9.61,9.53,16.25,9.53s12.19-3.28,16.25-9.53c-2.03-3.52-4.45-7.27-7.97-7.27-1.41,0-2.58,1.09-3.91,2.19-1.33,1.17-2.66,2.42-4.37,2.42s-3.36-1.17-4.92-2.34c-1.41-1.09-2.73-2.11-3.98-1.95-3.36,.31-5.39,3.67-7.34,6.95Z"/>
  </g>
  <g id="blush">
    <path class="cls-9" d="M320.08,337.42c0,5.87,7.82,10.63,17.49,10.63s17.51-4.75,17.51-10.62v-.02c0-5.87-7.82-10.63-17.49-10.63s-17.51,4.75-17.51,10.62v.02Zm135.47,0c0,5.87,7.82,10.63,17.49,10.63s17.51-4.75,17.51-10.62v-.02c0-5.87-7.82-10.63-17.49-10.63s-17.51,4.75-17.51,10.62v.02Z"/>
  </g>
</svg>