<?xml version="1.0" encoding="utf-8"?>
<!-- Generator: Adobe Illustrator 26.5.0, SVG Export Plug-In . SVG Version: 6.00 Build 0)  -->
<svg version="1.1" xmlns="http://www.w3.org/2000/svg" xmlns:xlink="http://www.w3.org/1999/xlink" x="0px" y="0px"
	 viewBox="0 0 800 800" style="enable-background:new 0 0 800 800;" xml:space="preserve">
<style type="text/css">
	.st0{fill:#F4D967;}
	.st1{fill:#891B48;}
	.st2{fill:#845040;}
	.st3{fill:#49332E;}
	.st4{fill:#E2E2D9;}
	.st5{fill:#F9F9F2;}
	.st6{fill:#E580B5;}
	.st7{fill:#B795DB;}
	.st8{fill:#36492C;}
	.st9{fill:#D6C97C;}
	.st10{fill:#4F3932;}
	.st11{fill:#BF2C4C;}
</style>
<g id="stick">
	<path  class="st0" d="M477.3,687.7c0,83.9-34.5,107.1-77.2,107.1s-77.2-23.3-77.2-107.1S357.4,491,400.1,491
		S477.3,603.8,477.3,687.7L477.3,687.7z M400.1,797.1c-24.7,0-43.1-7.5-56.3-23c-15.4-18-23.2-47-23.2-86.6
		c0-41.7,8.8-91.7,22.7-130.5c15.9-44.1,36.1-68.4,56.8-68.4s40.9,24.3,56.8,68.4c14.1,38.8,22.7,88.9,22.7,130.5
		c0,39.5-7.8,68.6-23.2,86.6C443.2,789.6,424.8,797.1,400.1,797.1z M400.1,493.4c-39.6,0-74.8,108.7-74.8,194.3
		c0,38.4,7.4,66.4,22,83.5c12.3,14.3,29.5,21.3,52.8,21.3s40.5-7,52.8-21.3c14.6-17,22-45.2,22-83.5
		C474.9,602,439.7,493.4,400.1,493.4z"/>
</g>
<g id="Layer_1">
	<path class="st1" d="M589.5,441.6c-0.5,0-0.8-0.4-0.8-0.9l1.2-22.6c0-0.5,0.4-0.8,0.9-0.7c0.5,0,0.8,0.4,0.7,0.9l-1.2,22.6
		C590.3,441.2,590,441.6,589.5,441.6z"/>
	<path class="st2" d="M484.8,616.7H313.7c-65.5,0-118.5-53-118.5-118.5V176.3c0-65.5,53-118.5,118.5-118.5h171.1
		c65.5,0,118.5,53,118.5,118.5v321.9C603.3,563.7,550.2,616.7,484.8,616.7z"/>
	<path class="st3" d="M483,619.8H315.5c-68.1,0-123.4-55.2-123.4-123.4V84.9c0-16.6,13.5-30.2,30.2-30.2h354
		c16.6,0,30.2,13.5,30.2,30.2v411.6C606.4,564.6,551.2,619.8,483,619.8L483,619.8z M222.3,61c-13.2,0-23.9,10.7-23.9,23.9V505
		c0,60,48.6,108.6,108.6,108.6h184.5c60,0,108.6-48.6,108.6-108.6V84.9c0-13.2-10.7-23.9-23.9-23.9H222.3z"/>
	<path class="st4" d="M538.2,6.2H262c-51,0-92.3,44.1-92.3,98.5v365.6c0,17.5,13.3,31.7,29.8,31.7h26.7
		c5.2-25.3,26.3-44.4,51.6-44.4c21.2,0,39.5,13.4,47.9,32.7c3,7,9.5,11.6,16.7,11.6s13.7-4.6,16.7-11.6
		c8.4-19.3,26.6-32.7,47.9-32.7c21.9,0,40.5,14.2,48.6,34.4c2.4,6.1,8,9.9,14.2,9.9s11.9-3.9,14.2-9.9c8-20.2,26.7-34.4,48.6-34.4
		c25.3,0,46.4,19,51.6,44.4h16.7c16.4,0,29.8-14.2,29.8-31.7V104.8C630.5,50.4,589.2,6.2,538.2,6.2z"/>
	<path class="st3" d="M600.8,505.2h-16.7c-1.5,0-2.7-1-3-2.5c-4.9-24.2-25.3-41.9-48.5-41.9c-19.9,0-37.9,12.7-45.7,32.4
		c-2.9,7.3-9.6,12-17.2,12s-14.3-4.7-17.2-12c-7.8-19.7-25.8-32.4-45.7-32.4c-19.2,0-37,12.1-45,30.9c-3.6,8.2-11.2,13.5-19.5,13.5
		s-16-5.3-19.5-13.5c-8.1-18.8-25.8-30.9-45-30.9c-23.2,0-43.6,17.6-48.5,41.9c-0.3,1.5-1.6,2.5-3,2.5h-26.7
		c-18.1,0-32.9-15.6-32.9-34.8V104.8c0-56,42.8-101.6,95.5-101.6h276.3c52.7,0,95.5,45.6,95.5,101.6v365.6
		C633.7,489.6,618.9,505.2,600.8,505.2L600.8,505.2z M586.6,499h14.2c14.7,0,26.6-12.8,26.6-28.6V104.8c0-52.6-40-95.4-89.2-95.4
		H262c-49.1,0-89.2,42.8-89.2,95.4v365.6c0,15.8,12,28.6,26.6,28.6h24.2c3-12,9.5-23,18.7-30.9c9.9-8.7,22.5-13.4,35.4-13.4
		c21.7,0,41.6,13.6,50.8,34.6c2.6,6,7.9,9.8,13.8,9.8s11.2-3.8,13.8-9.8c9.1-21,29.1-34.6,50.8-34.6c22.5,0,42.7,14.3,51.5,36.3
		c2,4.8,6.4,8,11.3,8s9.5-3.1,11.3-8c8.8-22.1,29-36.3,51.5-36.3c12.9,0,25.5,4.8,35.4,13.4C577,476,583.6,487,586.6,499L586.6,499z
		"/>
	<path class="st5" d="M547.9,6.2H300.5c-45.6,0-82.7,36.7-82.7,82v304.3c0,14.6,12,26.4,26.6,26.4h23.9
		c4.6-21.1,23.5-36.9,46.2-36.9c19,0,35.4,11.2,42.9,27.2c2.7,5.9,8.4,9.7,14.9,9.7s12.2-3.8,14.9-9.7c7.5-16.1,23.9-27.2,42.9-27.2
		c19.5,0,36.3,11.8,43.5,28.6c2.2,5.1,7.2,8.3,12.7,8.3s10.6-3.2,12.7-8.3c7.2-16.8,24-28.6,43.5-28.6c22.7,0,41.6,15.8,46.2,36.9
		h15.1c14.7,0,26.6-11.8,26.6-26.4V88.3C630.5,43,593.5,6.2,547.9,6.2z"/>
	<path class="st6" d="M226.6,195.3c-0.2,0-0.4-0.1-0.5-0.2l-16.2-15.4c-0.3-0.3-0.3-0.8,0-1.1s0.8-0.3,1.1,0l16.2,15.5
		c0.3,0.3,0.3,0.8,0,1.1C227,195.2,226.8,195.3,226.6,195.3L226.6,195.3z"/>
	<path class="st7" d="M314.2,85.9c-0.2,0-0.5-0.1-0.6-0.3c-0.2-0.3-0.2-0.9,0.1-1.1l17.4-14.2c0.3-0.2,0.9-0.2,1.1,0.1
		c0.2,0.3,0.2,0.9-0.1,1.1l-17.4,14.2C314.5,85.9,314.4,85.9,314.2,85.9L314.2,85.9z M439.6,69.1h-0.2c-0.4-0.2-0.6-0.5-0.5-0.9
		l6.2-21.4c0.2-0.4,0.5-0.6,0.9-0.5c0.4,0.2,0.6,0.5,0.5,0.9l-6.2,21.4C440.2,68.9,439.9,69.1,439.6,69.1z"/>
	<path class="st8" d="M495,80.6c-0.2,0-0.5-0.1-0.6-0.3l-13.5-17.9c-0.2-0.3-0.2-0.9,0.2-1.1c0.3-0.2,0.9-0.2,1.1,0.2l13.5,17.9
		c0.2,0.3,0.2,0.9-0.2,1.1C495.3,80.5,495.2,80.6,495,80.6L495,80.6z M564,314.5c-0.2,0-0.5-0.1-0.6-0.3l-13.5-17.9
		c-0.2-0.3-0.2-0.9,0.2-1.1c0.3-0.2,0.9-0.2,1.1,0.2l13.5,17.9c0.2,0.3,0.2,0.9-0.2,1.1C564.3,314.5,564.1,314.5,564,314.5
		L564,314.5z"/>
	<path class="st9" d="M403.1,132.7c-0.3,0-0.6-0.2-0.8-0.5l-6.1-21.4c-0.2-0.4,0.2-0.9,0.5-0.9c0.4-0.2,0.9,0.2,0.9,0.5l6.1,21.4
		c0.2,0.4-0.2,0.9-0.5,0.9C403.3,132.7,403.2,132.7,403.1,132.7z M314.9,414c-0.3,0-0.6-0.2-0.8-0.5L308,392
		c-0.2-0.4,0.2-0.9,0.5-0.9c0.4-0.2,0.9,0.2,0.9,0.5l6.1,21.4c0.2,0.4-0.2,0.9-0.5,0.9h-0.1V414z M516.2,392.1
		c-0.3,0-0.6-0.2-0.8-0.5l-6.1-21.4c-0.2-0.4,0.2-0.9,0.5-0.9c0.4-0.2,0.9,0.2,0.9,0.5l6.1,21.4C517,391.6,516.6,392.1,516.2,392.1
		L516.2,392.1z"/>
	<path class="st7" d="M575.2,65.4c-0.2,0-0.3-0.1-0.5-0.2l-18-13.4c-0.3-0.2-0.4-0.8-0.2-1.1s0.8-0.4,1.1-0.2l18,13.4
		c0.3,0.2,0.4,0.8,0.2,1.1C575.7,65.2,575.5,65.4,575.2,65.4L575.2,65.4z"/>
	<path class="st6" d="M311.9,345.8c-0.2,0-0.4-0.1-0.5-0.2l-16.2-15.5c-0.3-0.3-0.3-0.8,0-1.1s0.8-0.3,1.1,0l16.2,15.5
		c0.3,0.3,0.3,0.8,0,1.1C312.3,345.7,312.1,345.8,311.9,345.8L311.9,345.8z M582.5,210.8c-0.2,0-0.4-0.1-0.5-0.2l-16.2-15.5
		c-0.3-0.3-0.3-0.8,0-1.1s0.8-0.3,1.1,0l16.2,15.5c0.3,0.3,0.3,0.8,0,1.1C583,210.7,582.7,210.8,582.5,210.8z"/>
	<path class="st1" d="M217.8,414.4c-0.5,0-0.8-0.4-0.8-0.9l1.3-22.2c0-0.5,0.4-0.8,0.9-0.7c0.5,0,0.8,0.4,0.7,0.9l-1.3,22.2
		C218.6,414.1,218.2,414.4,217.8,414.4L217.8,414.4z M258.6,293c-0.2,0-0.4-0.1-0.5-0.2c-0.3-0.3-0.2-0.8,0.1-1.1l16.7-15
		c0.3-0.3,0.8-0.2,1.1,0.1c0.3,0.3,0.2,0.8-0.1,1.1l-16.7,15C259,293,258.8,293,258.6,293L258.6,293z M380.3,419.8
		c-0.3,0-0.5-0.2-0.7-0.4c-0.2-0.4-0.1-0.9,0.3-1.1l19.8-10.8c0.4-0.2,0.9-0.1,1.1,0.3s0.1,0.9-0.3,1.1l-19.8,10.8
		C380.5,419.7,380.4,419.8,380.3,419.8z"/>
	<path class="st3" d="M600.8,505.2h-16.7c-1.5,0-2.7-1-3-2.5c-4.9-24.2-25.3-41.9-48.5-41.9c-19.9,0-37.9,12.7-45.7,32.4
		c-2.9,7.3-9.6,12-17.2,12s-14.3-4.7-17.2-12c-7.8-19.7-25.8-32.4-45.7-32.4c-19.2,0-37,12.1-45,30.9c-3.6,8.2-11.2,13.5-19.5,13.5
		s-16-5.3-19.5-13.5c-8.1-18.8-25.8-30.9-45-30.9c-23.2,0-43.6,17.6-48.5,41.9c-0.3,1.5-1.6,2.5-3,2.5h-26.7
		c-18.1,0-32.9-15.6-32.9-34.8V104.8c0-56,42.8-101.6,95.5-101.6h276.3c52.7,0,95.5,45.6,95.5,101.6v365.6
		C633.7,489.6,618.9,505.2,600.8,505.2L600.8,505.2z M586.6,499h14.2c14.7,0,26.6-12.8,26.6-28.6V104.8c0-52.6-40-95.4-89.2-95.4
		H262c-49.1,0-89.2,42.8-89.2,95.4v365.6c0,15.8,12,28.6,26.6,28.6h24.2c3-12,9.5-23,18.7-30.9c9.9-8.7,22.5-13.4,35.4-13.4
		c21.7,0,41.6,13.6,50.8,34.6c2.6,6,7.9,9.8,13.8,9.8s11.2-3.8,13.8-9.8c9.1-21,29.1-34.6,50.8-34.6c22.5,0,42.7,14.3,51.5,36.3
		c2,4.8,6.4,8,11.3,8s9.5-3.1,11.3-8c8.8-22.1,29-36.3,51.5-36.3c12.9,0,25.5,4.8,35.4,13.4C577,476,583.6,487,586.6,499L586.6,499z
		"/>
	<path id="eyes" class="st10" d="M294.1,215.7c0,14.4,11.7,26.1,26.1,26.1s26.1-11.7,26.1-26.1c0-14.4-11.7-26.1-26.1-26.1
		C305.8,189.6,294.1,201.3,294.1,215.7L294.1,215.7L294.1,215.7z M480.9,215.7c0,14.4,11.7,26.1,26.1,26.1
		c14.4,0,26.1-11.7,26.1-26.1l0,0c0-14.4-11.7-26.1-26.1-26.1C492.6,189.6,480.9,201.3,480.9,215.7L480.9,215.7z"/>
	<path class="st11" d="M393.4,303.2v12.2c0,11,9.1,20.1,20.1,20.1s20.1-9.1,20.1-20.1v-12.2L413.5,288L393.4,303.2L393.4,303.2z"/>
	<path class="st3" d="M384.5,304.3c-16.5,0-29.8-13.4-29.8-29.8c0-4.5,1-8.9,3-13c0.2-0.4,0.6-0.5,1-0.4c0.4,0.2,0.5,0.6,0.4,1
		c-1.9,3.8-2.8,8-2.8,12.3c0,15.6,12.7,28.3,28.3,28.3s28.3-12.7,28.3-28.3c0-0.5,0.3-0.8,0.8-0.8s0.8,0.3,0.8,0.8
		C414.3,290.9,400.9,304.3,384.5,304.3L384.5,304.3z"/>
	<path class="st3" d="M442.6,304.3c-16.5,0-29.8-13.4-29.8-29.8c0-0.5,0.3-0.8,0.8-0.8s0.8,0.3,0.8,0.8c0,15.6,12.7,28.3,28.3,28.3
		s28.3-12.7,28.3-28.3c0-4.3-0.9-8.4-2.8-12.3c-0.2-0.4,0-0.9,0.4-1c0.4-0.2,0.9,0,1,0.4c2,4.1,3,8.4,3,13
		C472.5,290.9,459.1,304.3,442.6,304.3z"/>
</g>
</svg>
