<?xml version="1.0" encoding="utf-8"?>
<!-- Generator: Adobe Illustrator 26.5.0, SVG Export Plug-In . SVG Version: 6.00 Build 0)  -->
<svg version="1.1" xmlns="http://www.w3.org/2000/svg" xmlns:xlink="http://www.w3.org/1999/xlink" x="0px" y="0px"
	 viewBox="0 0 800 800" style="enable-background:new 0 0 800 800;" xml:space="preserve">
<style type="text/css">
	.st0{fill:#E2BFA3;}
	.st1{fill:#BC8671;}
	.st2{fill:#49332E;}
	.st3{fill:#A0695A;}
	.st4{fill:#F2F0DA;}
	.st5{fill:#CC735E;}
	.st6{fill:#6B4436;}
	.st7{fill:#6D4637;}
</style>
<g id="stick_1">
	<path   class="st0" d="M400.8,791.9c-24.4,0-44.2-19.9-44.2-44.2V532.1c0-24.4,19.9-44.2,44.2-44.2c24.4,0,44.2,19.9,44.2,44.2v215.5
		C445,772,425.2,791.9,400.8,791.9z M400.8,795c-26.1,0-47.3-21.2-47.3-47.3V532.1c0-26.1,21.2-47.3,47.3-47.3
		c26.1,0,47.3,21.2,47.3,47.3v215.5C448.1,773.8,426.9,795,400.8,795z M400.8,490.9c-22.7,0-41.1,18.4-41.1,41.1v215.6
		c0,22.7,18.4,41.1,41.1,41.1s41.1-18.4,41.1-41.1V532.1C441.9,509.4,423.4,490.9,400.8,490.9z"/>
</g>
<g id="Layer_1">
	<path class="st1" d="M55.9,133c0,69.3,56.2,125.5,125.5,125.5S307,202.4,307,133S250.7,7.5,181.4,7.5S55.9,63.7,55.9,133z"/>
	<path class="st2" d="M181.4,261.8c-70.9,0-128.7-57.7-128.7-128.7S110.5,4.4,181.4,4.4S310.1,62.1,310.1,133
		S252.4,261.8,181.4,261.8z M181.4,10.6C113.9,10.6,59,65.5,59,133s54.9,122.4,122.4,122.4S303.8,200.5,303.8,133
		S248.9,10.6,181.4,10.6z"/>
	<path class="st3" d="M109.6,137.1c0,43.4,35.2,78.6,78.6,78.6s78.6-35.2,78.6-78.6s-35.2-78.6-78.6-78.6S109.6,93.7,109.6,137.1
		L109.6,137.1z"/>
	<path class="st1" d="M494.6,133c0,69.3,56.2,125.5,125.5,125.5S745.7,202.4,745.7,133S689.5,7.5,620.2,7.5S494.6,63.7,494.6,133z"
		/>
	<path class="st2" d="M620.2,261.8c-70.9,0-128.7-57.7-128.7-128.7S549.2,4.4,620.2,4.4S748.8,62.1,748.8,133
		S691.1,261.8,620.2,261.8z M620.2,10.6c-67.5,0-122.4,54.9-122.4,122.4s54.9,122.4,122.4,122.4S742.6,200.5,742.6,133
		S687.7,10.6,620.2,10.6z"/>
	<path class="st3" d="M548.4,137.1c0,43.4,35.2,78.6,78.6,78.6s78.6-35.2,78.6-78.6S670.4,58.5,627,58.5S548.4,93.7,548.4,137.1z"/>
	<path class="st1" d="M679.1,326.6c0,148-124.6,254.4-278.4,254.4S122.4,474.5,122.4,326.6s124.6-268,278.4-268
		S679.1,178.5,679.1,326.6z"/>
	<path class="st2" d="M400.8,584c-76.1,0-146.7-25.7-198.9-72.5c-53.3-47.7-82.6-113.4-82.6-185c0-36.6,7.4-72.1,22.1-105.5
		c14.2-32.3,34.5-61.2,60.3-86.2c53.2-51.2,123.9-79.3,199.1-79.3s145.9,28.1,199,79.3c25.9,24.9,46.2,53.9,60.3,86.2
		c14.7,33.4,22.1,69,22.1,105.5c0,71.6-29.3,137.3-82.6,185C547.5,558.3,476.9,584,400.8,584z M400.8,61.7
		c-73.5,0-142.7,27.6-194.7,77.6c-52,50-80.5,116.5-80.5,187.2c0,69.8,28.6,133.9,80.5,180.3c51.1,45.7,120.2,70.9,194.8,70.9
		s143.7-25.2,194.8-70.9c51.9-46.5,80.5-110.5,80.5-180.3c0-70.7-28.6-137.2-80.5-187.2C543.4,89.2,474.3,61.7,400.8,61.7z"/>
	<path class="st4" d="M312.7,437.2c0,38.4,39.4,69.6,88,69.6c48.6,0,88.1-31.1,88.1-69.6c0,0,0,0,0-0.1c0-38.4-39.4-69.6-88-69.6
		S312.7,398.7,312.7,437.2L312.7,437.2z"/>
	<path class="st5" d="M220.9,414.5c0,12.5,20.6,22.7,45.9,22.7c25.4,0,45.9-10.1,45.9-22.7s-20.6-22.7-45.9-22.7
		C241.4,391.8,220.9,401.9,220.9,414.5z"/>
	<path class="st5" d="M502.4,414.5c0,12.5,20.5,22.7,45.9,22.7c25.4,0,46-10.1,46-22.6c0,0,0,0,0,0c0-12.5-20.5-22.7-45.9-22.7
		C523,391.8,502.4,401.9,502.4,414.5C502.4,414.4,502.4,414.4,502.4,414.5z"/>
	<path class="st6" d="M381.9,422c0,8.4,8.8,15.2,19.7,15.2c10.9,0,19.7-6.8,19.7-15.2c0-8.4-8.8-15.2-19.7-15.2
		C390.7,406.9,381.9,413.6,381.9,422C381.9,422,381.9,422,381.9,422L381.9,422z"/>
	<path class="st6" d="M377,458c-0.6,0-1.1-0.5-1.2-1c-0.1-0.6,0.4-1.2,1-1.3c0.2,0,15.7-2.1,23.7-20.9c0.2-0.6,0.9-0.9,1.6-0.6
		c0.6,0.2,0.9,0.9,0.6,1.6c-8.5,20.1-24.8,22.2-25.5,22.3H377L377,458z"/>
	<path class="st6" d="M426.2,458H426c-0.7-0.1-17-2.2-25.5-22.3c-0.2-0.6,0-1.2,0.6-1.6c0.6-0.2,1.2,0,1.6,0.6
		c8,18.8,23.5,20.9,23.7,20.9c0.6,0.1,1.1,0.6,1,1.3C427.3,457.6,426.8,458,426.2,458L426.2,458z"/>
</g>
<g id="eyes_1">
	<path id="eyes_1" class="st7" d="M242.6,343.4c0,13.4,10.8,24.2,24.2,24.2s24.2-10.8,24.2-24.2s-10.8-24.2-24.2-24.2
		S242.6,330,242.6,343.4z M524.1,343.4c0,13.4,10.8,24.2,24.2,24.2s24.2-10.8,24.2-24.2s-10.8-24.2-24.2-24.2S524.1,330,524.1,343.4
		z"/>
</g>
</svg>
