<?xml version="1.0" encoding="UTF-8"?>
<svg xmlns="http://www.w3.org/2000/svg" viewBox="0 0 800 800">
  <defs>
    <style>
      .cls-1 {
        fill: #fcd99d;
      }

      .cls-2 {
        fill: #49332e;
      }

      .cls-3 {
        fill: #ed8ec2;
      }

      .cls-4 {
        fill: #725852;
      }
    </style>
  </defs>
  <g id="Layer_1" data-name="Layer 1">
    <path id="cone6_1" class="cls-1" d="M566.17,333.98l-144.61,442.27c-7.34,21.64-36.88,21.64-44.22,0L232.81,333.98c-5.39-15.86,5.94-32.5,22.11-32.5h289.14c16.17,0,27.5,16.64,22.11,32.5Zm-166.72,460.86c-11.09,0-20.62-7.03-24.3-17.81L230.55,334.69c-2.81-8.36-1.48-17.66,3.59-24.77,4.92-6.87,12.42-10.78,20.7-10.78h289.14c8.28,0,15.78,3.91,20.7,10.78,5.08,7.11,6.48,16.41,3.59,24.77l-144.45,442.27c-3.67,10.86-13.28,17.89-24.38,17.89ZM254.92,303.83c-6.72,0-12.89,3.2-16.88,8.83-4.22,5.94-5.39,13.59-2.97,20.55l144.61,442.27c3.67,10.78,12.66,14.61,19.84,14.61s16.25-3.83,19.92-14.69l144.61-442.27c2.34-6.95,1.25-14.61-2.97-20.55-3.98-5.63-10.16-8.83-16.87-8.83H254.92v.08Z"/>
    <path class="cls-2" d="M269.84,447.66c-.08,0-.16,0-.23-.08-.16-.16-.16-.39,0-.55l125.47-137.81c.16-.16,.39-.16,.55,0s.16,.39,0,.55l-125.55,137.73c-.08,.08-.16,.16-.23,.16h0Zm42.66,122.11c-.08,0-.16,0-.23-.08-.16-.16-.16-.39,0-.55l239.84-259.61c.16-.16,.39-.16,.55,0s.16,.39,0,.55l-239.84,259.61c-.08,0-.16,.08-.31,.08h0Zm43.2,130.16c-.08,0-.16,0-.23-.08-.16-.16-.16-.39,0-.55l140.86-152.5c.16-.16,.39-.16,.55,0s.16,.39,0,.55l-140.86,152.42c-.08,.08-.16,.16-.31,.16h0Z"/>
    <path class="cls-2" d="M525,444.3c-.08,0-.23-.08-.31-.16l-135.23-148.44c-.16-.16-.16-.39,0-.55s.39-.16,.55,0l135.23,148.52c.16,.16,.16,.39,0,.55-.08,.08-.16,.08-.23,.08Zm-48.59,128.2c-.08,0-.23-.08-.31-.16L237.27,310c-.16-.16-.16-.39,0-.55s.39-.16,.55,0l238.91,262.27c.16,.16,.16,.39,0,.55-.08,.16-.16,.23-.31,.23Zm-31.87,133.91c-.08,0-.23-.08-.31-.16l-142.03-155.94c-.16-.16-.16-.39,0-.55s.39-.16,.55,0l142.03,156.02c.16,.16,.16,.39,0,.55,0,.08-.16,.08-.23,.08Z"/>
    <path class="cls-4" d="M372.34,306.41c0,17.52,12.12,31.73,27.1,31.73,14.97,0,27.12-14.19,27.12-31.7v-.03c0-17.52-12.12-31.73-27.1-31.73-14.97,0-27.12,14.19-27.12,31.7v.03Z"/>
    <path class="cls-4" d="M533.05,145.94c1.02-6.41,1.64-13.05,1.64-19.77,0-66.17-52.42-119.84-117.03-119.84-59.45,0-108.52,45.47-116.02,104.22-1.25,0-2.5-.08-3.75-.08-67.27,0-121.8,53.2-121.8,118.83s54.53,118.83,121.8,118.83c9.77,0,19.22-1.17,28.28-3.28,6.33,7.66,16.17,12.66,27.27,12.66,13.67,0,25.47-7.5,31.02-18.44,9.3,5.7,20.16,8.98,31.72,8.98,16.41,0,31.25-6.56,42.42-17.27,16.09,8.52,34.84,13.44,54.84,13.44,60.47,0,109.53-44.77,109.53-100,0-48.98-38.83-89.84-89.92-98.28h0Z"/>
    <path class="cls-2" d="M353.36,360.63c-11.02,0-21.25-4.45-28.44-12.34-8.91,1.95-18.05,2.89-27.11,2.89-68.91,0-124.92-54.69-124.92-121.95s56.09-121.95,124.92-121.95h1.02C307.81,47.81,358.36,3.2,417.58,3.2c66.25,0,120.16,55.16,120.16,122.97,0,5.7-.39,11.48-1.17,17.27,52.03,9.92,89.53,51.95,89.53,100.86,0,56.87-50.55,103.12-112.66,103.12-18.98,0-37.73-4.38-54.3-12.73-11.95,10.7-27.19,16.64-42.97,16.64-10.62,0-21.09-2.73-30.55-7.81-6.8,10.63-18.91,17.11-32.27,17.11h0Zm-27.27-18.91c.94,0,1.8,.39,2.42,1.17,6.02,7.34,15.08,11.48,24.84,11.48,11.95,0,23.05-6.56,28.2-16.72,.39-.78,1.09-1.33,1.95-1.56s1.72-.08,2.5,.31c9.14,5.63,19.53,8.52,30.08,8.52,14.92,0,29.22-5.86,40.31-16.41,.94-.94,2.42-1.09,3.59-.47,16.17,8.52,34.61,13.05,53.36,13.05,58.67,0,106.41-43.44,106.41-96.88,0-46.88-36.72-86.87-87.34-95.23-1.72-.31-2.89-1.87-2.58-3.59,1.02-6.41,1.56-12.97,1.56-19.3,0-64.38-51.09-116.72-113.91-116.72-57.03,0-105.55,43.67-112.89,101.48-.23,1.56-1.56,2.81-3.2,2.73h-.94c-.94,0-1.8-.08-2.73-.08-65.47,0-118.67,51.87-118.67,115.7s53.28,115.7,118.67,115.7c9.22,0,18.52-1.09,27.58-3.2,.31,.08,.55,0,.78,0Z"/>
    <path class="cls-2" d="M353.36,360.63c-11.02,0-21.25-4.45-28.44-12.34-8.91,1.95-18.05,2.89-27.11,2.89-68.91,0-124.92-54.69-124.92-121.95s56.09-121.95,124.92-121.95h1.02C307.81,47.81,358.36,3.2,417.58,3.2c66.25,0,120.16,55.16,120.16,122.97,0,5.7-.39,11.48-1.17,17.27,52.03,9.92,89.53,51.95,89.53,100.86,0,56.87-50.55,103.12-112.66,103.12-18.98,0-37.73-4.38-54.3-12.73-11.95,10.7-27.19,16.64-42.97,16.64-10.62,0-21.09-2.73-30.55-7.81-6.8,10.63-18.91,17.11-32.27,17.11h0Zm-27.27-18.91c.94,0,1.8,.39,2.42,1.17,6.02,7.34,15.08,11.48,24.84,11.48,11.95,0,23.05-6.56,28.2-16.72,.39-.78,1.09-1.33,1.95-1.56s1.72-.08,2.5,.31c9.14,5.63,19.53,8.52,30.08,8.52,14.92,0,29.22-5.86,40.31-16.41,.94-.94,2.42-1.09,3.59-.47,16.17,8.52,34.61,13.05,53.36,13.05,58.67,0,106.41-43.44,106.41-96.88,0-46.88-36.72-86.87-87.34-95.23-1.72-.31-2.89-1.87-2.58-3.59,1.02-6.41,1.56-12.97,1.56-19.3,0-64.38-51.09-116.72-113.91-116.72-57.03,0-105.55,43.67-112.89,101.48-.23,1.56-1.56,2.81-3.2,2.73h-.94c-.94,0-1.8-.08-2.73-.08-65.47,0-118.67,51.87-118.67,115.7s53.28,115.7,118.67,115.7c9.22,0,18.52-1.09,27.58-3.2,.31,.08,.55,0,.78,0Z"/>
    <path class="cls-3" d="M292.03,206.41c0,8.2,11.77,14.85,26.32,14.85s26.33-6.64,26.34-14.84h0c0-8.21-11.77-14.86-26.32-14.87s-26.33,6.64-26.34,14.84h0Z"/>
    <path class="cls-3" d="M440.55,206.41c0,8.2,11.79,14.84,26.33,14.84s26.33-6.65,26.33-14.84-11.79-14.84-26.33-14.84-26.33,6.65-26.33,14.84Z"/>
    <path class="cls-2" d="M372.34,246.33c-11.64,0-21.02-6.95-21.02-15.47,0-2.42,.7-4.69,2.11-6.8,.23-.39,.7-.47,1.09-.23,.39,.23,.47,.7,.23,1.09-1.25,1.87-1.87,3.83-1.87,5.94,0,7.66,8.75,13.91,19.45,13.91s19.45-6.25,19.45-13.91c0-.47,.31-.78,.78-.78s.78,.31,.78,.78c.08,8.59-9.38,15.47-21.02,15.47Z"/>
    <path class="cls-2" d="M412.89,246.33c-11.64,0-21.02-6.95-21.02-15.47,0-.47,.31-.78,.78-.78s.78,.31,.78,.78c0,7.66,8.75,13.91,19.45,13.91s19.45-6.25,19.45-13.91c0-2.11-.62-4.06-1.88-5.94-.23-.39-.16-.86,.23-1.09s.86-.16,1.09,.23c1.41,2.11,2.11,4.38,2.11,6.8,.08,8.59-9.38,15.47-21.02,15.47Z"/>
  </g>
  <g id="Layer_2" data-name="Layer 2">
    <path id="eyes6_1" class="cls-2" d="M343.52,178.75c-.62,0-1.17-.55-1.17-1.17,0-12.66-10.23-22.97-22.73-22.97s-22.73,10.31-22.73,22.97c0,.63-.55,1.17-1.17,1.17s-1.17-.55-1.17-1.17c0-13.98,11.25-25.31,25.08-25.31s25.08,11.33,25.08,25.31c0,.7-.55,1.17-1.17,1.17h0Zm-48.44,0h-.16c-7.81-1.25-14.37-5.94-17.27-12.11-.23-.63,0-1.25,.55-1.56,.62-.31,1.25,0,1.56,.55,2.58,5.55,8.52,9.69,15.55,10.78,.62,.08,1.09,.7,.94,1.33-.08,.63-.62,1.02-1.17,1.02Zm3.05-10.47h-.16c-6.95-1.09-12.81-5.23-15.39-10.78-.23-.63,0-1.25,.55-1.56,.62-.31,1.25,0,1.56,.55,2.27,4.84,7.5,8.52,13.67,9.45,.62,.08,1.09,.7,.94,1.33-.16,.63-.62,1.02-1.17,1.02Zm191.41,10.47c-.62,0-1.17-.55-1.17-1.17,0-12.66-10.23-22.97-22.73-22.97s-22.73,10.31-22.73,22.97c0,.63-.55,1.17-1.17,1.17s-1.17-.55-1.17-1.17c0-13.98,11.25-25.31,25.08-25.31s25.08,11.33,25.08,25.31c0,.7-.55,1.17-1.17,1.17h0Zm.63,0c-.55,0-1.09-.39-1.17-1.02s.31-1.25,.94-1.33c7.03-1.17,12.97-5.31,15.55-10.78,.23-.63,.94-.86,1.56-.55,.62,.23,.86,.94,.55,1.56-2.89,6.25-9.53,10.86-17.27,12.11h-.16Zm-2.97-10.47c-.55,0-1.09-.39-1.17-1.02s.31-1.25,.94-1.33c6.17-1.02,11.41-4.61,13.67-9.45,.23-.63,.94-.86,1.56-.55,.62,.23,.86,.94,.55,1.56-2.58,5.55-8.44,9.69-15.39,10.78h-.16Z"/>
  </g>
</svg>