<?xml version="1.0" encoding="UTF-8"?>
<svg xmlns="http://www.w3.org/2000/svg" viewBox="0 0 800 800">
  <defs>
    <style>
      .cls-1 {
        fill: #ff5959;
      }

      .cls-2 {
        fill: #ffa250;
      }

      .cls-3 {
        fill: #5fd2db;
      }

      .cls-4 {
        fill: #fffeb9;
      }
    </style>
  </defs>
  <g id="stick_10">
    <path class="cls-2" d="M400,800h0c-30.11,0-54.75-24.64-54.75-54.75v-210.22c0-30.11,24.64-54.75,54.75-54.75h0c30.11,0,54.75,24.64,54.75,54.75v210.22c0,30.11-24.64,54.75-54.75,54.75Z"/>
  </g>
  <g id="Layer_1" data-name="Layer 1">
    <g>
      <path class="cls-1" d="M157.61,471.33L346.37,37.46c21.73-49.94,85.52-49.94,107.25,0l188.76,433.87c19.21,44.15-9.63,95.5-53.63,95.5H211.24c-44,0-72.84-51.35-53.63-95.5Z"/>
      <path class="cls-4" d="M593.88,359.83H206.12l-48.51,111.5c-19.21,44.15,9.63,95.5,53.63,95.5h377.52c44,0,72.84-51.35,53.63-95.5l-48.51-111.5Z"/>
      <path class="cls-3" d="M621.45,423.2H178.55l-20.94,48.13c-19.21,44.15,9.63,95.5,53.63,95.5h377.52c44,0,72.84-51.35,53.63-95.5l-20.94-48.13Z"/>
    </g>
  </g>
</svg>