<?xml version="1.0" encoding="UTF-8"?>
<svg xmlns="http://www.w3.org/2000/svg" viewBox="0 0 800 800">
  <defs>
    <style>
      .cls-1 {
        fill: #bd161f;
      }

      .cls-2 {
        fill: #74b2ac;
      }

      .cls-3 {
        fill: #c3eae3;
      }

      .cls-4 {
        fill: #fcd99d;
      }

      .cls-5 {
        fill: #f9c7f5;
      }

      .cls-6 {
        fill: #49332e;
      }
    </style>
  </defs>
  <g id="cone">
    <path class="cls-4" d="M566.56,379.53l-143.2,398.91c-7.27,19.53-36.48,19.53-43.75,0L236.33,379.53c-5.31-14.3,5.86-29.3,21.88-29.3h286.41c16.02,0,27.27,15,21.95,29.3h0Zm-165.08,416.8c-.08,0,0,0,0,0-11.33,0-21.09-6.56-24.84-16.72L233.36,380.63c-2.81-7.5-1.72-15.62,2.89-22.27,4.92-7.03,13.12-11.25,22.03-11.25h286.41c8.91,0,17.11,4.22,22.03,11.25,4.61,6.64,5.63,14.77,2.89,22.27l-143.28,398.91c-3.83,10.23-13.59,16.8-24.84,16.8Zm-143.2-442.89c-6.8,0-13.12,3.2-16.8,8.52-3.44,4.92-4.22,10.94-2.11,16.48l143.2,398.98c3.44,9.22,12.03,12.58,18.91,12.58s15.47-3.28,18.91-12.58l143.2-398.91c2.03-5.55,1.33-11.56-2.11-16.48-3.75-5.39-10-8.52-16.8-8.52H258.28v-.08Z"/>
  </g>
  <g id="Layer_1" data-name="Layer 1">
    <path class="cls-2" d="M553.05,377.81l-29.37,24.92c-10.16,6.41-22.97,7.19-33.83,1.95l-15.62-10.63c-15.78-7.58-34.69,13.2-45.08,27.34l-3.52,4.77c-13.83,12.66-34.92,12.89-49.06,.62l-5.78-7.34c-10.23-13.12-28.12-33.67-43.36-26.95l-20.7,12.19c-11.64,5.08-25.16,3.52-35.31-4.14l-21.56-22.73c-25.86,0-46.8-17.73-46.8-43.59V205c0-109.61,88.83-198.44,198.44-198.44s198.44,88.83,198.44,198.44v129.22c-.08,25.78-21.02,43.59-46.88,43.59h0Z"/>
    <path class="cls-6" d="M400.78,438.05c-9.14,0-18.36-3.2-25.78-9.61l-.31-.31-5.78-7.34c-6.33-8.05-25.47-32.66-40.39-26.25l-20.7,12.27c-.08,.08-.16,.08-.23,.16-12.42,5.47-26.87,3.75-37.66-4.45-.08-.08-.23-.16-.31-.23l-20.86-22.03c-27.5-.47-48.13-20.08-48.13-45.94V205c0-53.67,20.86-104.06,58.83-141.95C297.42,25.08,347.81,4.14,401.48,4.14s103.98,20.94,141.95,58.83c37.89,37.89,58.83,88.36,58.83,141.95v129.22c0,25.94-20.7,45.55-48.28,45.94l-28.75,24.37-.23,.23c-10.94,6.87-24.45,7.66-36.09,2.11-.08-.08-.23-.08-.31-.16l-15.55-10.55c-15.08-6.95-34.38,16.33-41.95,26.64l-3.52,4.77c-.08,.16-.23,.23-.31,.31-7.42,6.8-16.95,10.23-26.48,10.23h0Zm-22.42-13.05c13.2,11.25,32.73,11.02,45.63-.55l3.36-4.53c10.31-14.06,30.31-36.48,48.05-28.05,.08,.08,.23,.08,.31,.16l15.47,10.55c10.08,4.77,21.72,4.06,31.25-1.8l29.22-24.77c.47-.39,.94-.55,1.56-.55,12.11,0,23.28-4.06,31.48-11.48,8.36-7.58,12.89-18.13,12.89-29.69V205c0-52.34-20.39-101.56-57.42-138.59S453.83,8.91,401.48,8.91s-101.56,20.39-138.59,57.42c-37.03,37.03-57.42,86.25-57.42,138.59v129.22c0,11.64,4.61,22.19,12.89,29.69,8.2,7.42,19.37,11.48,31.48,11.48,.62,0,1.25,.23,1.72,.78l21.48,22.58c9.38,7.03,21.88,8.52,32.66,3.83l20.7-12.27c.08-.08,.16-.08,.23-.16,16.41-7.19,34.22,12.34,46.17,27.66l5.55,7.27Z"/>
    <path class="cls-5" d="M305.39,253.98c0,7.21,9.55,13.05,21.33,13.05s21.33-5.84,21.33-13.05h0c0-7.21-9.55-13.05-21.33-13.05s-21.33,5.84-21.33,13.05Z"/>
    <path class="cls-5" d="M477.66,253.98c-.01,7.21,9.53,13.05,21.31,13.06s21.34-5.83,21.35-13.03v-.02c.01-7.21-9.53-13.05-21.31-13.06s-21.34,5.83-21.35,13.03v.02Z"/>
    <path class="cls-1" d="M421.09,287.89l30.55-18.98-7.73-11.56c-5.63-8.36-16.72-10.31-24.61-4.38s-9.77,17.66-4.14,26.02l5.94,8.91h0Z"/>
    <path class="cls-6" d="M411.72,290.23c-17.42,0-33.28-9.14-41.41-23.91-.62-1.17-.23-2.58,.94-3.2,1.17-.62,2.58-.23,3.2,.94,7.27,13.28,21.56,21.48,37.19,21.48s30.47-8.52,37.58-22.19c.62-1.17,2.03-1.64,3.2-1.02,1.17,.62,1.64,2.03,1.02,3.2-7.89,15.23-23.91,24.69-41.72,24.69h0Z"/>
    <path class="cls-6" d="M400.78,438.83c-9.38,0-18.75-3.28-26.25-9.77-.16-.16-.31-.31-.39-.47l-5.78-7.34c-6.25-7.97-25.08-32.11-39.45-26.09l-20.62,12.27c-.08,.08-.23,.16-.31,.16-12.66,5.55-27.42,3.83-38.52-4.53-.16-.08-.23-.23-.39-.31l-20.63-21.8c-27.81-.62-48.59-20.55-48.59-46.72V205c0-53.83,20.94-104.45,59.06-142.58C296.95,24.38,347.58,3.36,401.48,3.36s104.45,20.94,142.58,59.06c38.05,38.05,59.06,88.67,59.06,142.58v129.22c0,26.33-20.86,46.25-48.83,46.8l-28.52,24.14c-.08,.08-.23,.16-.39,.23-11.17,7.03-25,7.81-36.88,2.11-.16-.08-.31-.16-.39-.23l-15.47-10.55c-14.53-6.64-33.44,16.25-40.94,26.41l-3.52,4.77c-.16,.16-.23,.31-.39,.47-7.58,7.03-17.27,10.47-27.03,10.47h0Zm-21.88-14.37c12.89,10.94,31.87,10.7,44.45-.55l3.28-4.45c10.47-14.3,30.86-36.95,48.98-28.28,.16,.08,.31,.16,.39,.23l15.39,10.55c9.84,4.61,21.17,3.98,30.39-1.8l29.22-24.77c.55-.47,1.33-.78,2.03-.78,11.95,0,22.89-3.98,30.94-11.25,8.2-7.42,12.66-17.73,12.66-29.14V205c0-52.19-20.31-101.17-57.19-138.05-36.88-36.88-85.94-57.19-138.05-57.19s-101.17,20.31-138.05,57.19-57.19,85.94-57.19,138.05v129.22c0,11.41,4.53,21.72,12.66,29.14,8.05,7.27,19.06,11.25,30.94,11.25,.86,0,1.72,.39,2.27,1.02l21.41,22.58c9.14,6.8,21.25,8.2,31.72,3.67l20.62-12.27c.08-.08,.23-.16,.31-.16,16.95-7.42,35,12.34,47.11,27.89l5.7,7.11h0Z"/>
    <path class="cls-6" d="M273.05,482.97c-.31,0-.62-.08-.86-.31-.47-.47-.47-1.25,0-1.72l80.23-80.23c.47-.47,1.25-.47,1.72,0s.47,1.25,0,1.72l-80.23,80.16c-.23,.23-.55,.39-.86,.39Zm42.27,110.08c-.31,0-.62-.16-.86-.39-.47-.47-.47-1.25,0-1.72l186.64-183.98c.47-.47,1.25-.47,1.72,0,.47,.47,.47,1.25,0,1.72l-186.64,184.06c-.23,.23-.55,.31-.86,.31h0Zm42.81,117.42c-.31,0-.62-.16-.86-.39-.47-.47-.47-1.25,0-1.72l139.53-137.58c.47-.47,1.25-.47,1.72,0,.47,.47,.47,1.25,0,1.72l-139.53,137.58c-.23,.23-.55,.39-.86,.39Z"/>
    <path class="cls-6" d="M525.78,479.92c-.31,0-.62-.08-.86-.31l-74.3-74.3c-.47-.47-.47-1.25,0-1.72,.47-.47,1.25-.47,1.72,0l74.3,74.3c.47,.47,.47,1.25,0,1.72-.31,.23-.62,.31-.86,.31h0Zm-48.12,115.62c-.31,0-.62-.08-.86-.31l-185-185.08c-.47-.47-.47-1.25,0-1.72,.47-.47,1.25-.47,1.72,0l185,185c.47,.47,.47,1.25,0,1.72-.23,.23-.55,.39-.86,.39Zm-31.56,120.78c-.31,0-.62-.08-.86-.31l-140.7-140.7c-.47-.47-.47-1.25,0-1.72,.47-.47,1.25-.47,1.72,0l140.62,140.7c.47,.47,.47,1.25,0,1.72-.16,.23-.47,.31-.78,.31h0Z"/>
    <path class="cls-3" d="M370.47,69.61c101.17,0,186.09,67.5,209.92,158.75v-2.03c0-99.22-80.16-179.61-178.98-179.61-40.94,0-78.67,13.83-108.75,37.03,24.14-9.14,50.39-14.14,77.81-14.14h0Z"/>
  </g>
  <g id="eyes_5_1">
    <path id="eyes4_1" class="cls-6" d="M355.23,229.22h-62.97c-1.33,0-2.34-1.09-2.34-2.34s1.09-2.34,2.34-2.34h54.92l-44.61-29.22c-1.09-.7-1.41-2.19-.7-3.28s2.19-1.41,3.28-.7l51.33,33.44c.86,.55,1.25,1.64,1.02,2.66-.23,1.09-1.17,1.8-2.27,1.8h0Zm178.2,0h-62.97c-1.02,0-1.95-.7-2.27-1.72-.31-1.02,.08-2.11,1.02-2.66l51.33-33.44c1.09-.7,2.58-.39,3.28,.7s.39,2.58-.7,3.28l-44.61,29.06h54.92c1.33,0,2.34,1.09,2.34,2.34s-1.09,2.42-2.34,2.42Z"/>
  </g>
</svg>