<?xml version="1.0" encoding="UTF-8"?>
<svg xmlns="http://www.w3.org/2000/svg" viewBox="0 0 800 800">
  <defs>
    <style>
      .cls-1 {
        fill: #becc5c;
      }

      .cls-2 {
        fill: #775647;
      }

      .cls-3 {
        fill: #dff28f;
      }

      .cls-4 {
        fill: #49332e;
      }

      .cls-5 {
        fill: #a7b257;
      }

      .cls-6 {
        fill: #e2bfa3;
      }

      .cls-7 {
        fill: #ed9b85;
      }
    </style>
  </defs>
  <g id="stick_8-1">
    <path id="stick8_1" class="cls-6" d="M405,574.84c-14.14,0-27.89-1.41-41.09-3.91v148.98c0,22.58,18.52,41.09,41.09,41.09s41.09-18.52,41.09-41.09v-148.98c-13.2,2.58-26.95,3.91-41.09,3.91Zm0,189.45c-24.45,0-44.37-19.92-44.37-44.37v-148.98c0-1.02,.47-1.95,1.17-2.58,.78-.62,1.8-.86,2.73-.7,26.56,5.16,54.3,5.16,80.94,0,.94-.16,1.95,.08,2.73,.7s1.17,1.56,1.17,2.58v148.98c0,24.45-19.92,44.37-44.37,44.37Zm-37.81-189.37v145c0,20.86,16.95,37.81,37.81,37.81s37.81-16.95,37.81-37.81v-145c-25,4.3-50.7,4.3-75.62,0h0Z"/>
  </g>
  <g id="Layer_1" data-name="Layer 1">
    <path class="cls-5" d="M115.47,328.28c-.03,158.7,127.44,287.37,284.71,287.4,157.27,.03,284.79-128.59,284.82-287.28v-.12c0-158.7-127.49-287.34-284.77-287.34-157.27,0-284.77,128.65-284.77,287.34h0Z"/>
    <path class="cls-4" d="M400.23,618.91c-38.91,0-76.64-7.66-112.11-22.81-34.3-14.61-65.08-35.62-91.56-62.27-54.37-54.92-84.38-127.89-84.38-205.55s29.92-150.63,84.38-205.55c26.48-26.72,57.27-47.66,91.56-62.27,35.55-15.16,73.28-22.81,112.11-22.81s76.64,7.66,112.11,22.81c34.3,14.61,65.08,35.62,91.56,62.27,54.37,54.92,84.38,127.89,84.38,205.55s-29.92,150.63-84.38,205.47c-26.48,26.72-57.27,47.66-91.56,62.27-35.47,15.23-73.2,22.89-112.11,22.89h0Zm0-574.69c-75.16,0-145.86,29.53-198.98,83.2s-82.42,125-82.42,200.86,29.3,147.19,82.42,200.86,123.83,83.2,198.98,83.2,145.86-29.61,198.98-83.2c53.12-53.67,82.42-125,82.42-200.86s-29.3-147.19-82.42-200.86c-53.12-53.67-123.83-83.2-198.98-83.2h0Z"/>
    <path class="cls-1" d="M140.78,288.91c0,136.99,116.16,248.05,259.45,248.05s259.45-111.05,259.45-248.05c0-136.99-116.16-248.05-259.45-248.05-143.29,0-259.45,111.05-259.46,248.04h0s0,0,0,0Z"/>
    <path class="cls-4" d="M400.23,540.23c-70.16,0-136.09-26.09-185.78-73.59-49.69-47.5-77.03-110.63-77.03-177.73s27.34-130.31,77.03-177.73c49.61-47.42,115.62-73.59,185.78-73.59s136.09,26.09,185.78,73.59c49.69,47.5,77.03,110.63,77.03,177.73s-27.34,130.31-77.03,177.73c-49.69,47.5-115.62,73.59-185.78,73.59Zm0-496.02c-68.44,0-132.81,25.47-181.17,71.72-48.36,46.25-75,107.66-75,172.97s26.64,126.8,75,172.97c48.36,46.25,112.73,71.72,181.17,71.72s132.81-25.47,181.17-71.72c48.36-46.25,75-107.66,75-172.97s-26.64-126.8-75-172.97c-48.36-46.25-112.73-71.72-181.17-71.72h0Z"/>
    <path class="cls-2" d="M444.77,355.23h-89.06c-.94,0-1.64-.7-1.64-1.64s.7-1.64,1.64-1.64h89.06c.94,0,1.64,.7,1.64,1.64s-.7,1.64-1.64,1.64Z"/>
    <path class="cls-3" d="M242.42,167.89c-.7,0-1.48-.23-2.03-.7-1.41-1.17-1.64-3.2-.55-4.69,15.94-19.92,34.77-37.42,55.86-52.03,1.48-1.02,3.59-.7,4.61,.86,1.02,1.48,.7,3.59-.86,4.61-20.62,14.3-38.91,31.33-54.45,50.7-.7,.86-1.64,1.25-2.58,1.25Zm-22.19,39.22c-.86,0-1.72-.39-2.34-.94-.62-.62-.94-1.48-.94-2.34s.39-1.72,.94-2.34c.62-.62,1.48-.94,2.34-.94s1.72,.31,2.34,.94c.62,.62,.94,1.48,.94,2.34s-.39,1.72-.94,2.34c-.62,.62-1.41,.94-2.34,.94Z"/>
    <path class="cls-7" d="M234.61,343.13c0,13.98,14.1,25.31,31.48,25.31s31.48-11.33,31.48-25.31-14.1-25.31-31.48-25.31-31.48,11.33-31.48,25.31h0Z"/>
    <path class="cls-7" d="M492.27,343.13c-.01,13.98,14.07,25.32,31.46,25.33,17.39,.01,31.5-11.31,31.51-25.29v-.04c.01-13.98-14.07-25.32-31.46-25.33-17.39-.01-31.5,11.31-31.51,25.29v.04Z"/>
  </g>
  <g id="eyes_8-1">
    <path  class="cls-2" d="M234.61,272.27c0,13.2,11.6,23.91,25.93,23.92,14.32,0,25.94-10.69,25.95-23.9v-.02c0-13.2-11.6-23.91-25.93-23.92-14.32,0-25.94,10.69-25.95,23.9v.02Zm279.38,0c0,13.2,11.61,23.91,25.94,23.91s25.94-10.7,25.94-23.91-11.61-23.91-25.94-23.91-25.94,10.7-25.94,23.91Z"/>
  </g>
</svg>